<svg id="Layer_1" enable-background="new 0 0 511.954 511.954" viewBox="0 0 511.954 511.954" xmlns="http://www.w3.org/2000/svg"><g><path d="m468.066 0c-8.284 0-15 6.716-15 15v303.197c0 33.842-27.521 61.375-61.351 61.375s-61.351-27.533-61.351-61.375v-221.039c0-53.573-43.572-97.158-97.13-97.158s-97.131 43.585-97.131 97.158v18.113c-16.547 6.114-28.377 22.035-28.379 40.665v11.966h-11.699c-8.283 0-14.999 6.714-15 14.998l-.008 59.494-51.338 148.185c-1.646 4.809-.89 11.446 3.888 15.828l107.74 101.511c5.226 5.053 14.786 5.725 20.642-.066l106.411-101.546c3.702-3.61 6.016-9.698 3.786-15.854l-52.39-148.124.008-59.425c.036-6.99-6.047-15.005-15-15.002h-10.387v-11.973c.001-11.572-4.49-22.449-12.649-30.629-4.499-4.511-9.821-7.899-15.625-10.039v-18.102c0-37.031 30.115-67.158 67.131-67.158s67.131 30.127 67.131 67.158v221.04c0 50.384 40.979 91.375 91.351 91.375s91.351-40.991 91.351-91.375v-303.198c-.001-8.284-6.717-15-15.001-15zm-278.304 197.901-.005 32.003-78.739.013.005-32.016zm47.027 182.557-63.96.01 31.943-90.533zm-140.32-91.024 33.63 91.041-65.174.01zm21.077-29.518 66.009-.01-32.249 91.401zm19.078 150.558-.018 51.796-54.966-51.787zm30-.005 53.928-.009-53.946 51.48zm-28.9-242.568v-11.964c.001-7.356 6.004-13.341 13.381-13.342 3.549 0 6.881 1.38 9.382 3.889 2.51 2.516 3.891 5.869 3.891 9.443v11.975h-26.654z"/></g><g/><g/><g/><g/><g/><g/><g/><g/><g/><g/><g/><g/><g/><g/><g/></svg>