<svg id="Layer_1" enable-background="new 0 0 512 512" viewBox="0 0 512 512" xmlns="http://www.w3.org/2000/svg"><g><path d="m435.451 0h-293.711c-8.284 0-15 6.716-15 15v49.979h-50.191c-8.284 0-15 6.716-15 15v417.021c0 8.284 6.716 15 15 15h293.71c8.284 0 15-6.716 15-15v-49.979h50.191c8.284 0 15-6.716 15-15v-417.021c.001-8.284-6.715-15-14.999-15zm-197.286 39.951v-9.951h100.861v9.951c0 8.803 1.609 17.234 4.533 25.029h-109.897c2.948-7.902 4.503-16.344 4.503-25.029zm-81.425-9.951h51.425v9.951c0 9.159-2.956 17.86-8.405 25.029h-43.02zm-65.191 64.979h51.425v9.95c0 22.869-18.605 41.474-41.474 41.474h-9.951zm51.425 387.021h-51.425v-51.425h9.951c22.869 0 41.474 18.605 41.474 41.474zm212.286 0h-51.425v-9.951c0-22.869 18.605-41.474 41.474-41.474h9.951zm0-81.425h-9.951c-39.411 0-71.474 32.063-71.474 71.474v9.951h-100.861v-9.951c0-39.411-32.063-71.474-71.474-71.474h-9.951v-98.104h64.254c1.762 7.944 4.89 15.375 9.127 22.04l-21.161 20.664c-5.927 5.788-6.04 15.285-.252 21.212 2.939 3.01 6.834 4.52 10.733 4.52 3.779 0 7.562-1.419 10.479-4.268l21.367-20.865c6.734 4.324 14.257 7.514 22.307 9.299v79.104c0 8.284 6.716 15 15 15s15-6.716 15-15v-79.104c8.178-1.814 15.813-5.075 22.628-9.505l22.798 20.998c2.883 2.655 6.525 3.967 10.158 3.967 4.046 0 8.08-1.627 11.037-4.838 5.612-6.093 5.222-15.583-.871-21.195l-22.063-20.321c4.13-6.579 7.181-13.896 8.914-21.707h64.254v98.103zm-171.112-113.104c0-21.646 17.61-39.256 39.256-39.256s39.256 17.61 39.256 39.256-17.61 39.256-39.256 39.256-39.256-17.61-39.256-39.256zm171.112-15h-64.254c-1.774-7.998-4.933-15.475-9.214-22.175l22.807-22.807c5.858-5.858 5.858-15.355 0-21.213-5.857-5.858-15.355-5.858-21.213 0l-22.807 22.807c-6.7-4.281-14.177-7.44-22.175-9.214v-79.066c0-8.284-6.716-15-15-15s-15 6.716-15 15v79.066c-7.997 1.773-15.475 4.933-22.174 9.214l-22.807-22.807c-5.859-5.857-15.355-5.858-21.213 0-5.858 5.857-5.858 15.355 0 21.213l22.807 22.807c-4.281 6.7-7.44 14.177-9.214 22.175h-64.254v-96.067h9.951c39.411 0 71.474-32.063 71.474-71.474v-9.95h100.861v9.95c0 39.411 32.063 71.474 71.474 71.474h9.951zm0-126.067h-9.951c-22.869 0-41.474-18.605-41.474-41.474v-9.95h51.425zm65.191 270.617h-35.191v-42.863c7.203-5.552 15.974-8.561 25.24-8.561h9.951zm0-81.425h-9.951c-8.774 0-17.286 1.577-25.24 4.572v-233.36c7.854 2.975 16.357 4.617 25.24 4.617h9.951zm0-254.171h-9.951c-22.869 0-41.474-18.605-41.474-41.474v-9.951h51.425z"/></g><g/><g/><g/><g/><g/><g/><g/><g/><g/><g/><g/><g/><g/><g/><g/></svg>