<svg id="Layer_1" enable-background="new 0 0 511.917 511.917" height="512" viewBox="0 0 511.917 511.917" width="512" xmlns="http://www.w3.org/2000/svg"><g><path d="m61.459 101.54h148.041v30h-148.041z"/><path d="m302.417 101.54h148.041v30h-148.041z"/><path d="m61.459 161.543h148.041v30h-148.041z"/><path d="m61.459 221.547h148.041v30h-148.041z"/><path d="m61.459 281.551h148.041v30h-148.041z"/><path d="m302.417 281.551h148.041v30h-148.041z"/><path d="m309.781 36.536c-21.766 0-41.202 10.154-53.822 25.976-12.621-15.822-32.057-25.976-53.822-25.976h-202.137v400.023h63.03v33.43h90.004v-33.43h49.102c21.407 0 38.822 17.416 38.822 38.822h30c0-21.407 17.416-38.822 38.822-38.822h202.136v-400.023zm0 30h172.136v280.02h-172.136c-14.392 0-27.764 4.44-38.822 12.021v-253.219c-.001-21.407 17.415-38.822 38.822-38.822zm-107.645 0c21.407 0 38.822 17.416 38.822 38.822v253.219c-11.058-7.582-24.431-12.021-38.822-12.021h-172.136v-280.02zm-172.136 340.023v-30.004h33.03v30.004zm63.03 33.43v-63.434h30.004v63.434zm109.106-33.43h-49.102v-30.004h49.102c21.407 0 38.822 17.416 38.822 38.822v3.203c-11.057-7.581-24.43-12.021-38.822-12.021zm107.645 0c-14.392 0-27.764 4.44-38.822 12.021v-3.203c0-21.407 17.416-38.822 38.822-38.822h172.136v30.004z"/><path d="m376.438 254.132c39.986 0 70.519-38.581 71.799-40.223l7.188-9.222-7.188-9.222c-43.807-53.199-100.1-52.846-143.597 0l-7.188 9.222 7.188 9.222c1.279 1.642 31.812 40.223 71.798 40.223zm39.407-49.454c-6.005 5.625-14.64 12.462-24.407 16.35v-32.642c9.967 4.12 17.321 9.785 24.407 16.292zm-54.407-16.331v32.642c-9.967-4.121-17.321-9.785-24.407-16.292 6.005-5.626 14.64-12.462 24.407-16.35z"/></g></svg>