<svg id="Layer_1" enable-background="new 0 0 511.998 511.998" height="512" viewBox="0 0 511.998 511.998" width="512" xmlns="http://www.w3.org/2000/svg"><g><path d="m466.996 385.176h-98.286c69.246-39.522 114.005-116.021 113.286-195.997v-21.787h-156.485l47.801-56.966c15.648-18.65 13.207-46.555-5.445-62.207l-1.298-1.089c-18.649-15.649-46.554-13.208-62.204 5.442l-96.345 114.819h-178.018v21.787c-.725 79.968 44.046 156.484 113.286 195.997h-98.286c-59.634 2.27-59.589 87.756 0 90.003h421.994c59.634-2.268 59.589-87.754 0-90.002zm-139.65-313.32c5.017-5.978 13.96-6.761 19.942-1.743l1.298 1.089c5.979 5.017 6.761 13.962 1.745 19.94l-63.981 76.25h-39.168zm-267.174 125.536h391.654c-17.995 248.672-373.748 248.488-391.654 0zm406.824 247.787h-421.994c-19.88-.756-19.865-29.254 0-30.003h421.994c19.88.756 19.865 29.254 0 30.003z"/><path d="m429.376 139.612h30c0-25.041-20.372-45.412-45.412-45.412v30c8.498 0 15.412 6.914 15.412 15.412z"/><path d="m481.998 139.584h30c0-54.041-43.965-98.006-98.006-98.006v30c37.499 0 68.006 30.507 68.006 68.006z"/><path d="m52.622 139.612h30c0-8.498 6.914-15.412 15.412-15.412v-30c-25.04 0-45.412 20.372-45.412 45.412z"/><path d="m98.006 71.578v-30c-54.041 0-98.006 43.965-98.006 98.006h30c0-37.499 30.507-68.006 68.006-68.006z"/><path d="m240.999 240.893h30v30.002h-30z" transform="matrix(.707 -.707 .707 .707 -105.964 255.968)"/><path d="m305.003 240.893h30v30.002h-30z" transform="matrix(.707 -.707 .707 .707 -87.218 301.226)"/><path d="m369.007 240.893h30v30.002h-30z" transform="matrix(.707 -.707 .707 .707 -68.471 346.484)"/><path d="m176.995 240.893h30v30.002h-30z" transform="matrix(.707 -.707 .707 .707 -124.71 210.711)"/><path d="m112.991 240.893h30v30.002h-30z" transform="matrix(.707 -.707 .707 .707 -143.457 165.453)"/></g></svg>