<svg id="Layer_1" enable-background="new 0 0 512 512" viewBox="0 0 512 512" xmlns="http://www.w3.org/2000/svg"><g><path d="m497 89.701c8.284 0 15-6.716 15-15v-59.701c0-8.284-6.716-15-15-15h-482c-8.284 0-15 6.716-15 15v59.701c0 8.284 6.716 15 15 15h32.646v118.81c-20.153 6.38-34.802 25.254-34.802 47.489s14.649 41.109 34.802 47.489v118.81h-32.646c-8.284 0-15 6.716-15 15v59.701c0 8.284 6.716 15 15 15h482c8.284 0 15-6.716 15-15v-59.701c0-8.284-6.716-15-15-15h-32.646v-118.81c20.153-6.38 34.802-25.254 34.802-47.489s-14.649-41.109-34.802-47.489v-118.81zm-467-59.701h452v29.701h-452zm179.825 241h31.175v67.218l-100.597 70.299v-31.405c0-23.71 9.238-45.996 26.013-62.752zm46.175 93.335 82.946 57.964h-165.892zm115.598 44.182-100.598-70.299v-67.218h31.175l43.409 43.36c16.775 16.756 26.014 39.042 26.014 62.752zm-68.797-167.517h-93.601l-38.092-32.917c-7.033-6.078-12.979-13.146-17.715-20.905h205.216c-4.737 7.758-10.682 14.827-17.715 20.905zm68.797-100.027c0 5.482-.511 10.904-1.495 16.206h-228.205c-.984-5.302-1.495-10.724-1.495-16.206v-51.272h231.194v51.272zm-308.952 95.225c10.919 0 19.802 8.883 19.802 19.802s-8.883 19.802-19.802 19.802-19.801-8.883-19.801-19.802 8.883-19.802 19.801-19.802zm15 67.291c20.153-6.38 34.802-25.254 34.802-47.489s-14.649-41.109-34.802-47.489v-118.81h32.757v51.271c0 34.511 14.977 67.246 41.089 89.81l30.103 26.013-36.38 36.339c-22.448 22.423-34.812 52.247-34.812 83.977v45.187h-32.757zm404.354 178.511h-452v-29.701h452zm-32.646-206.198c-10.919 0-19.802-8.883-19.802-19.802s8.883-19.802 19.802-19.802 19.802 8.883 19.802 19.802-8.884 19.802-19.802 19.802zm-15-67.291c-20.153 6.38-34.802 25.254-34.802 47.489s14.649 41.109 34.802 47.489v118.81h-32.756v-45.187c0-31.73-12.363-61.554-34.812-83.978l-36.38-36.339 30.104-26.013c26.112-22.564 41.089-55.299 41.089-89.81v-51.271h32.756v118.81z"/></g><g/><g/><g/><g/><g/><g/><g/><g/><g/><g/><g/><g/><g/><g/><g/></svg>