<svg id="Layer_1" enable-background="new 0 0 512.102 512.102" height="512" viewBox="0 0 512.102 512.102" width="512" xmlns="http://www.w3.org/2000/svg"><g><path d="m437.155 74.945c-160.103-160.656-437.514-45.746-437.106 181.059-2.839 137.622 118.415 258.899 256.052 256.047 226.809.393 341.715-277.021 181.054-437.106zm-14.989 181.056c0 20.706-3.809 40.538-10.763 58.834l-35.248-58.834 35.248-58.834c6.953 18.296 10.763 38.128 10.763 58.834zm-206.711 75.531h-89.69l45.253-75.531-45.253-75.531h89.69l40.645-74.285 40.645 74.285h89.69l-45.253 75.531 45.253 75.531h-89.69l-40.645 74.285zm-125.422-75.531c0-20.706 3.809-40.538 10.763-58.834l35.248 58.834-35.248 58.834c-6.954-18.296-10.763-38.128-10.763-58.834zm224.494-105.531-31.97-58.429c40.708 6.545 76.516 27.938 101.674 58.429zm-43.428-89.967v-30.067c29.836 1.942 58.553 9.665 84.844 22.629l-15.096 26.148c-21.394-10.298-44.933-16.824-69.748-18.71zm-30 0c-24.815 1.886-48.354 8.412-69.748 18.71l-15.096-26.148c26.292-12.964 55.008-20.688 84.844-22.629zm-11.458 31.538-31.97 58.429h-69.704c25.158-30.491 60.967-51.885 101.674-58.429zm-169.04 148.96h-30.067c1.942-29.836 9.665-58.553 22.629-84.845l26.147 15.096c-10.297 21.395-16.823 44.934-18.709 69.749zm0 30c1.886 24.815 8.412 48.353 18.71 69.748l-26.147 15.096c-12.964-26.292-20.688-55.008-22.629-84.845h30.066zm137.071 90.531 31.97 58.429c-40.708-6.545-76.516-27.938-101.673-58.429zm43.427 89.967v30.067c-29.836-1.942-58.553-9.665-84.844-22.629l15.096-26.148c21.395 10.298 44.933 16.824 69.748 18.71zm30 0c24.815-1.886 48.354-8.412 69.748-18.71l15.096 26.148c-26.292 12.964-55.008 20.688-84.844 22.629zm11.458-31.538 31.97-58.429h69.704c-25.158 30.491-60.966 51.884-101.674 58.429zm169.041-148.96h30.067c-1.941 29.836-9.665 58.553-22.629 84.845l-26.147-15.096c10.296-21.396 16.822-44.934 18.709-69.749zm0-30c-1.886-24.815-8.412-48.353-18.71-69.748l26.147-15.096c12.964 26.292 20.688 55.008 22.629 84.845h-30.066zm-7.604-110.801-26.148 15.097c-13.724-19.989-31.053-37.318-51.042-51.042l15.097-26.149c24.146 16.175 45.918 37.947 62.093 62.094zm-347.737-34.042c10.542-10.542 21.942-19.914 34.042-28.052l15.097 26.149c-19.989 13.724-37.318 31.053-51.042 51.042l-26.149-15.097c8.138-12.1 17.51-23.5 28.052-34.042zm-28.052 285.644 26.148-15.097c13.724 19.989 31.053 37.318 51.042 51.042l-15.097 26.149c-24.146-16.175-45.919-37.947-62.093-62.094zm347.737 34.042c-10.542 10.542-21.941 19.914-34.042 28.052l-15.097-26.149c19.989-13.724 37.318-31.053 51.042-51.042l26.148 15.097c-8.137 12.1-17.509 23.5-28.051 34.042z"/><path d="m291.552 293.79 19.763 11.41 15-25.98-19.735-11.394c1.806-7.546 1.806-16.102 0-23.648l19.735-11.394-15-25.98-19.763 11.41c-5.747-5.395-12.721-9.497-20.452-11.838v-22.789h-30v22.789c-7.732 2.341-14.705 6.444-20.452 11.838l-19.763-11.41-15 25.98 19.735 11.394c-1.806 7.546-1.806 16.102 0 23.648l-19.735 11.394 15 25.98 19.763-11.41c5.747 5.395 12.721 9.497 20.452 11.838v22.789h30v-22.789c7.731-2.341 14.705-6.444 20.452-11.838zm-57.292-37.789c0-12.042 9.797-21.839 21.84-21.839 28.934 1.097 28.926 42.586 0 43.679-12.044-.001-21.84-9.798-21.84-21.84z"/></g></svg>