<svg id="Layer_1" enable-background="new 0 0 512 512" viewBox="0 0 512 512" xmlns="http://www.w3.org/2000/svg"><g><path d="m364.164 174.834h10.639v10.588c0 8.284 6.716 15 15 15s15-6.716 15-15v-10.588h10.64c8.284 0 15-6.716 15-15s-6.716-15-15-15h-10.64v-10.588c0-8.284-6.716-15-15-15s-15 6.716-15 15v10.588h-10.639c-8.284 0-15 6.716-15 15s6.715 15 15 15z"/><path d="m477.96 420.218-16.421-88.761c17.237-6.916 29.444-23.768 29.444-43.425 0-25.798-21.017-46.787-46.851-46.787-20.46 0-37.886 13.17-44.257 31.462h-89.095c-2.277-6.74-6.086-12.919-11.272-18.094-8.848-8.831-20.61-13.693-33.118-13.693-1.97 0-3.908.136-5.815.373l-31.835-80.879c8.13-8.419 13.145-19.856 13.145-32.448 0-25.798-21.017-46.787-46.851-46.787-11.958 0-22.879 4.503-31.167 11.893l-70.374-41.947c.132-1.429.209-2.874.209-4.337 0-25.799-21.017-46.788-46.851-46.788s-46.851 20.989-46.851 46.788 21.017 46.787 46.851 46.787c13.509 0 25.693-5.746 34.251-14.911l67.928 40.49c-.548 2.856-.845 5.8-.845 8.813 0 25.798 21.017 46.787 46.851 46.787 2.347 0 4.653-.178 6.908-.512l31.56 80.182c-8.614 8.489-13.965 20.272-13.965 33.284 0 25.798 21.017 46.787 46.851 46.787 20.581 0 38.091-13.326 44.367-31.787h88.897c4.854 14.632 16.751 26.078 31.666 30.32l16.421 88.761c-17.237 6.916-29.444 23.768-29.444 43.425 0 25.798 21.017 46.787 46.851 46.787s46.852-20.99 46.852-46.788c0-21.363-14.416-39.414-34.04-44.995zm-431.109-356.643c-9.291 0-16.851-7.531-16.851-16.787s7.56-16.788 16.851-16.788 16.851 7.531 16.851 16.787-7.559 16.788-16.851 16.788zm148.185 81.179c-9.292 0-16.851-7.531-16.851-16.787s7.559-16.787 16.851-16.787 16.851 7.531 16.851 16.787-7.56 16.787-16.851 16.787zm71.355 159.741c-9.292 0-16.851-7.531-16.851-16.787s7.56-16.787 16.852-16.787c4.506 0 8.742 1.75 11.926 4.927 3.176 3.169 4.925 7.381 4.925 11.86-.001 9.256-7.561 16.787-16.852 16.787zm177.741.325c-9.292 0-16.851-7.531-16.851-16.787s7.56-16.787 16.851-16.787 16.851 7.531 16.851 16.787-7.559 16.787-16.851 16.787zm21.017 177.18c-9.292 0-16.851-7.531-16.851-16.787 0-9.245 7.542-16.767 16.817-16.785.006 0 .011.001.017.001.011 0 .023-.002.034-.002 9.283.009 16.834 7.536 16.834 16.786 0 9.256-7.559 16.787-16.851 16.787z"/><circle cx="72.267" cy="322.649" r="15"/><circle cx="116.937" cy="372.973" r="15"/></g><g/><g/><g/><g/><g/><g/><g/><g/><g/><g/><g/><g/><g/><g/><g/></svg>