<svg id="Layer_1" enable-background="new 0 0 511.962 511.962" height="512" viewBox="0 0 511.962 511.962" width="512" xmlns="http://www.w3.org/2000/svg"><path d="m509.364 430.678c-6.993-34.834-21.051-67.294-40.701-95.71 20.294-101.865-42.232-209.683-140.267-242.963-14.783-31.199-35.853-59.578-62.504-83.034l-9.91-8.722-9.91 8.722c-26.651 23.456-47.722 51.835-62.504 83.034-98.048 33.29-160.558 141.097-140.269 242.963-19.65 28.416-33.708 60.875-40.701 95.709l-2.598 12.944 12.509 4.222c26.508 8.946 54.162 13.483 82.192 13.484 7.071.001 14.132-.288 21.134-.858 77.105 68.325 203.19 68.323 280.294-.001 7.004.57 14.053.858 21.132.859h.004c28.024 0 55.677-4.537 82.189-13.484l12.508-4.222zm-67.188-134.847c0 2.22-.04 4.431-.117 6.633-25.445-26.41-56.53-47.492-91.489-61.244 5.568-37.139 2.857-74.586-7.283-109.817 58.786 31.34 98.889 93.288 98.889 164.428zm-56.363 133.339c-38.928-5.369-75.835-20.643-107.158-44.481 30.964-31.222 54.059-71.22 65.616-113.648 36.677 15.377 68.303 39.962 92.179 70.692-8.589 33.753-26.423 63.855-50.637 87.437zm-310.301-87.437c23.876-30.731 55.502-55.315 92.179-70.693 5.828 21.267 14.381 41.729 25.524 61.028 11.142 19.299 24.588 36.94 40.092 52.621-31.325 23.839-68.232 39.114-107.157 44.482-24.214-23.582-42.048-53.684-50.638-87.438zm246.084-109.968c-42.522-11.204-88.707-11.205-131.229 0-5.021-39.452.456-79.132 15.131-115.174 31.856-9.223 69.111-9.223 100.966 0 14.676 36.041 20.153 75.722 15.132 115.174zm-102.4 85.304c-10.176-17.626-17.908-36.34-23.065-55.793 38.713-10.553 80.988-10.553 119.702 0-5.157 19.453-12.89 38.168-23.065 55.792-10.177 17.626-22.518 33.68-36.786 47.872-14.269-14.191-26.61-30.245-36.786-47.871zm36.785-276.314c12.658 12.564 23.67 26.465 32.919 41.356-21.53-3.295-44.308-3.295-65.838 0 9.25-14.89 20.261-28.792 32.919-41.356zm-186.194 255.076c0-71.14 40.104-133.088 98.89-164.427-10.14 35.231-12.851 72.678-7.283 109.817-34.96 13.752-66.044 34.834-91.49 61.244-.077-2.203-.117-4.414-.117-6.634zm-15.395 78.434c7.942 20.431 19.023 39.612 32.996 56.945-17.728-.567-35.247-3.193-52.309-7.839 4.543-17.214 11.062-33.674 19.313-49.106zm201.589 107.76c-36.211 0-70.04-10.391-98.664-28.347 35.844-8.902 69.517-25.407 98.664-48.625 29.147 23.218 62.82 39.722 98.665 48.625-28.623 17.956-62.453 28.347-98.665 28.347zm168.594-50.815c13.972-17.333 25.054-36.514 32.996-56.946 8.251 15.432 14.77 31.893 19.313 49.107-17.064 4.646-34.584 7.272-52.309 7.839z"/></svg>