<svg id="Layer_1" enable-background="new 0 0 512 512" viewBox="0 0 512 512" xmlns="http://www.w3.org/2000/svg"><g><path d="m421.109 140.369c0-.006-.001-.011-.001-.017.003-12.052-4.649-23.35-13.106-31.816-8.384-8.392-19.551-13.014-31.445-13.014-5.177 0-10.151.894-14.787 2.521l.055-27.596c.028-11.992-4.62-23.272-13.09-31.761-8.468-8.488-19.734-13.163-31.724-13.163h-.646c-6.253 0-12.21 1.295-17.625 3.623-2.209-5.929-5.674-11.372-10.278-15.986-8.466-8.486-19.732-13.16-31.719-13.16h-.794c-20.074 0-37.108 13.269-42.793 31.498-5.201-2.117-10.881-3.293-16.834-3.293h-.509c-24.71 0-44.813 20.105-44.813 44.817v86.889c-4.719-1.681-9.794-2.604-15.082-2.604-24.858 0-45.082 20.226-45.082 45.086v144.421c0 91.084 74.092 165.186 165.164 165.186 44.156 0 85.658-17.208 116.861-48.455 31.209-31.252 48.363-72.789 48.303-116.941zm-69.475 301.978c-25.536 25.57-59.499 39.653-95.635 39.653-74.529 0-135.163-60.644-135.163-135.185v-144.42c0-8.319 6.766-15.086 15.082-15.086s15.082 6.767 15.082 15.086v67.325c0 8.284 6.716 15 15 15s15-6.716 15-15v-196.698c0-8.17 6.646-14.818 14.813-14.818 7.597-.388 15.304 6.477 15.322 14.818v132.894c0 8.284 6.716 15 15 15s15-6.716 15-15v-161.099c0-8.17 6.646-14.817 14.813-14.817 7.194-.402 15.651 5.665 15.607 14.855l-.311 161.162c-.016 8.284 6.687 15.013 14.971 15.029h.03c8.27 0 14.983-6.697 14.999-14.971l.26-134.885c-.378-7.54 6.182-15.694 14.86-15.667 7.161-.34 15.493 5.729 15.46 14.858l-.306 152.3c-.017 8.285 6.686 15.014 14.97 15.03h.031c8.27 0 14.982-6.696 14.999-14.97l.166-82.451c0-.009.001-.018.001-.027.041-8.128 6.712-14.741 14.87-14.741 6.974-.019 14.574 5.983 14.552 14.854l.055 206.252c.052 36.149-13.987 70.142-39.528 95.719z"/><path d="m256 283.415c-75.111 0-107.056 61.824-108.379 64.456-2.144 4.262-2.131 9.29.033 13.541 1.506 2.958 9.886 18.486 27.062 33.656 22.765 20.107 51.177 30.735 82.164 30.735 72.986 0 104.182-57.859 107.498-64.457 2.144-4.262 2.131-9.29-.033-13.541-3.354-6.591-34.89-64.39-108.345-64.39zm32.452 35.507c-3.794 13.287-16.28 22.244-32.452 22.244-16.095 0-28.539-8.872-32.398-22.054 9.344-3.48 20.116-5.698 32.398-5.698 12.365.001 23.138 2.138 32.452 5.508zm-31.572 76.881c-44.653 0-69.148-27.859-78.296-41.157 3.666-5.286 9.821-12.959 18.685-20.256 3.231 7.466 8 14.219 14.151 19.898 11.788 10.884 27.621 16.878 44.58 16.878s32.791-5.994 44.579-16.878c6.249-5.77 11.064-12.652 14.297-20.261 8.898 7.319 14.993 15.089 18.653 20.554-8.932 13.231-32.989 41.222-76.649 41.222z"/></g><g/><g/><g/><g/><g/><g/><g/><g/><g/><g/><g/><g/><g/><g/><g/></svg>