<svg id="Layer_1" enable-background="new 0 0 511.696 511.696" height="512" viewBox="0 0 511.696 511.696" width="512" xmlns="http://www.w3.org/2000/svg"><g><g><path d="m255.848 511.696c-91.981 0-166.813-74.832-166.813-166.813v-193.217h15c16.73 0 32.634 5.389 45.726 15.345v-81.473c-.576-30.843 32.061-53.576 60.778-42.689 4.477-57.167 86.192-57.106 90.621.022 28.665-10.944 61.374 11.84 60.777 42.667v81.526c12.713-9.659 28.561-15.399 45.722-15.399h15l.003 193.217c-.001 91.982-74.833 166.814-166.814 166.814zm-136.813-327.526v160.713c6.9 181.298 266.791 181.16 273.626 0v-160.692c-17.868 6.221-30.725 23.236-30.725 43.197v49.06h-30v-190.91c-.774-20.357-29.957-20.343-30.725-.001v160.548h-30v-201.03c-.775-20.358-29.958-20.343-30.726 0v201.031h-30v-160.549c0-4.104-1.598-7.961-4.5-10.863-9.493-9.651-26.315-2.675-26.226 10.864v190.91h-30v-49.06c0-12.213-4.756-23.696-13.393-32.332-4.968-4.969-10.879-8.653-17.331-10.886z"/></g><g><path d="m255.823 424.174c-54.288 0-96.155-54.08-97.911-56.382l-6.937-9.096 6.937-9.096c60.288-74.608 135.954-74.119 195.823 0l6.937 9.096-6.937 9.096c-1.756 2.303-43.623 56.382-97.912 56.382zm-66.014-65.445c44.553 46.837 87.47 46.609 132.028-.066-44.553-46.837-87.469-46.609-132.028.066z"/></g><g><path d="m240.823 343.695h30v30.002h-30z"/></g></g></svg>