<svg id="Layer_1" enable-background="new 0 0 511.971 511.971" height="512" viewBox="0 0 511.971 511.971" width="512" xmlns="http://www.w3.org/2000/svg"><g><path d="m467.062 80.944c-24.761 0-44.904 20.144-44.904 44.905v87.548c-16.301-6.001-35.35-2.469-48.417 10.6l-90.362 90.362c-11.291 11.292-20.487 24.12-27.393 38.014-6.905-13.894-16.101-26.723-27.393-38.014l-90.362-90.362c-13.067-13.069-32.117-16.601-48.417-10.6v-87.548c-2.265-59.505-87.567-59.461-89.81 0v234.943l103.35 103.349v47.83h305.264v-47.83l103.35-103.349v-234.943c-.001-24.761-20.145-44.905-44.906-44.905zm-226.076 401.027h-107.632v-30.256l-103.35-103.349v-222.517c.752-19.751 29.065-19.737 29.81 0v130.499h.021c-.033 11.806 4.444 23.623 13.433 32.611l78.844 78.844 21.213-21.213-78.844-78.844c-6.181-5.932-6.181-16.605 0-22.537 5.931-6.181 16.606-6.182 22.537 0l90.362 90.362c21.671 21.671 33.605 50.484 33.605 81.131v65.269zm240.981-133.605-103.35 103.349v30.256h-107.631v-65.268c0-30.647 11.935-59.46 33.605-81.131l90.362-90.362c5.932-6.181 16.606-6.182 22.537 0 6.181 5.931 6.182 16.605 0 22.536l-78.844 78.844 21.213 21.213 78.844-78.844c8.988-8.988 13.466-20.805 13.433-32.611h.021v-130.499c.752-19.751 29.065-19.737 29.81 0z"/><path d="m255.986 250.684c78.489-.673 129.451-85.229 83.835-155.16l-37.612-71.545-17.692 12.563-28.455-36.542-28.837 36.558-17.521-12.526-37.554 71.495c-45.622 69.918 5.363 154.497 83.836 155.157zm-26.652-56.652c0-6.598 10.349-23.069 26.616-40.082 14.034 14.81 26.687 32.275 26.687 40.082-1.34 35.31-51.969 35.298-53.303 0zm-30.868-84.101 21.791-41.476 12.798 9.15 22.854-28.972 22.571 28.987 13.132-9.325 21.731 41.336.161.298c11.587 20.881 14.02 32.85 14.02 39.214 0 16.427-5.565 31.578-14.91 43.668-.468-13.101-8.436-28.691-24.318-47.601-10.922-13.005-21.733-22.927-22.188-23.343l-10.123-9.257-10.123 9.257c-.455.416-11.267 10.338-22.188 23.343-15.882 18.91-23.85 34.5-24.318 47.601-9.344-12.09-14.91-27.241-14.91-43.668.001-6.362 2.433-18.331 14.02-39.212z"/></g></svg>