<svg id="Layer_1" enable-background="new 0 0 512 512" height="512" viewBox="0 0 512 512" width="512" xmlns="http://www.w3.org/2000/svg"><g><path d="m244.132 293.622h30v30.002h-30z"/><path d="m475.059 88v-88h-438.118v88h37.562v153h-15.002v30h15.002v153h-37.562v88h438.117v-88h-30.798v-153h15.002v-30h-15.002v-153zm-408.118-58h378.117v28h-378.117zm192.191 364.453 87.898 29.547h-175.795zm94.629.161-79.629-26.768v-19.219h-30v19.219l-79.628 26.768v-16.312c0-45.106 28.791-84.875 71.642-98.958l22.987-7.555 22.985 7.555c42.852 14.083 71.643 53.852 71.643 98.958zm-71.643-161.958-22.985 7.555-22.987-7.555c-27.679-9.097-49.491-28.91-61.467-53.956h168.908c-11.978 25.046-33.79 44.86-61.469 53.956zm71.643-98.958c0 5.078-.365 10.088-1.074 15.002h-187.11c-.709-4.914-1.074-9.924-1.074-15.002v-45.698h189.257v45.698zm-249.258 137.302h15.002v-30h-15.002v-153h30v45.698c0 53.3 31.211 100.812 78.983 122.302-47.772 21.49-78.983 69.002-78.983 122.302v45.698h-30zm340.556 211h-378.118v-28h378.117v28zm-30.799-241h-15.001v30h15.001v153h-30.499v-45.698c0-53.3-31.211-100.812-78.983-122.302 47.772-21.49 78.983-69.002 78.983-122.302v-45.698h30.499z"/></g></svg>