<?xml version="1.0" encoding="UTF-8"?>
<svg id="LINE_BLCK" data-name="LINE BLCK" xmlns="http://www.w3.org/2000/svg" viewBox="0 0 64 64">
  <g>
    <path d="M49.07,52.61c-.83,0-1.5-.67-1.5-1.5V18.1c0-.83.67-1.5,1.5-1.5s1.5.67,1.5,1.5v33.02c0,.83-.67,1.5-1.5,1.5Z"/>
    <path d="M14.93,52.61c-.83,0-1.5-.67-1.5-1.5V12.89c0-.83.67-1.5,1.5-1.5s1.5.67,1.5,1.5v38.22c0,.83-.67,1.5-1.5,1.5Z"/>
  </g>
  <g>
    <path d="M42,21.57h-19.99c-.83,0-1.5-.67-1.5-1.5s.67-1.5,1.5-1.5h19.99c.83,0,1.5.67,1.5,1.5s-.67,1.5-1.5,1.5Z"/>
    <path d="M42,27.53h-19.99c-.83,0-1.5-.67-1.5-1.5s.67-1.5,1.5-1.5h19.99c.83,0,1.5.67,1.5,1.5s-.67,1.5-1.5,1.5Z"/>
    <path d="M42,33.5h-19.99c-.83,0-1.5-.67-1.5-1.5s.67-1.5,1.5-1.5h19.99c.83,0,1.5.67,1.5,1.5s-.67,1.5-1.5,1.5Z"/>
    <path d="M42,39.47h-19.99c-.83,0-1.5-.67-1.5-1.5s.67-1.5,1.5-1.5h19.99c.83,0,1.5.67,1.5,1.5s-.67,1.5-1.5,1.5Z"/>
    <path d="M42,45.43h-19.99c-.83,0-1.5-.67-1.5-1.5s.67-1.5,1.5-1.5h19.99c.83,0,1.5.67,1.5,1.5s-.67,1.5-1.5,1.5Z"/>
  </g>
  <g>
    <g>
      <path d="M11,13.09h-3c-1.38,0-2.5-1.12-2.5-2.5v-3.3c0-1.38,1.12-2.5,2.5-2.5h3c.83,0,1.5.67,1.5,1.5s-.67,1.5-1.5,1.5h-2.5v2.3h2.5c.83,0,1.5.67,1.5,1.5s-.67,1.5-1.5,1.5Z"/>
      <path d="M7,10.44h-2c-.83,0-1.5-.67-1.5-1.5s.67-1.5,1.5-1.5h2c.83,0,1.5.67,1.5,1.5s-.67,1.5-1.5,1.5Z"/>
    </g>
    <path d="M56,13.09h-3c-.83,0-1.5-.67-1.5-1.5s.67-1.5,1.5-1.5h2.5v-2.3h-2.5c-.83,0-1.5-.67-1.5-1.5s.67-1.5,1.5-1.5h3c1.38,0,2.5,1.12,2.5,2.5v3.3c0,1.38-1.12,2.5-2.5,2.5Z"/>
    <path d="M53,14.39H11c-.83,0-1.5-.67-1.5-1.5v-7.89c0-.83.67-1.5,1.5-1.5h42c.83,0,1.5.67,1.5,1.5v7.89c0,.83-.67,1.5-1.5,1.5ZM12.5,11.39h39v-4.89H12.5v4.89Z"/>
    <path d="M59,10.44h-2c-.83,0-1.5-.67-1.5-1.5s.67-1.5,1.5-1.5h2c.83,0,1.5.67,1.5,1.5s-.67,1.5-1.5,1.5Z"/>
  </g>
  <g>
    <path d="M53,60.5H11c-.83,0-1.5-.67-1.5-1.5v-7.89c0-.83.67-1.5,1.5-1.5h42c.83,0,1.5.67,1.5,1.5v7.89c0,.83-.67,1.5-1.5,1.5ZM12.5,57.5h39v-4.89H12.5v4.89Z"/>
    <g>
      <path d="M11,59.2h-3c-1.38,0-2.5-1.12-2.5-2.5v-3.3c0-1.38,1.12-2.5,2.5-2.5h3c.83,0,1.5.67,1.5,1.5v5.3c0,.83-.67,1.5-1.5,1.5ZM8.5,56.2h1v-2.3h-1v2.3Z"/>
      <path d="M7,56.56h-2c-.83,0-1.5-.67-1.5-1.5s.67-1.5,1.5-1.5h2c.83,0,1.5.67,1.5,1.5s-.67,1.5-1.5,1.5Z"/>
    </g>
    <g>
      <path d="M56,59.2h-3c-.83,0-1.5-.67-1.5-1.5v-5.3c0-.83.67-1.5,1.5-1.5h3c1.38,0,2.5,1.12,2.5,2.5v3.3c0,1.38-1.12,2.5-2.5,2.5ZM54.5,56.2h1v-2.3h-1v2.3Z"/>
      <path d="M59,56.56h-2c-.83,0-1.5-.67-1.5-1.5s.67-1.5,1.5-1.5h2c.83,0,1.5.67,1.5,1.5s-.67,1.5-1.5,1.5Z"/>
    </g>
  </g>
</svg>