<?xml version="1.0" encoding="UTF-8"?>
<svg id="LINE_BLCK" data-name="LINE BLCK" xmlns="http://www.w3.org/2000/svg" viewBox="0 0 64 64">
  <g>
    <path d="M33.25,51.33c-.67,0-1.29-.46-1.46-1.14-.2-.8.29-1.62,1.09-1.82,3.34-.83,6.4-2.45,8.94-4.7-1.13.19-2.28.28-3.44.28-11.51,0-20.87-9.36-20.87-20.87,0-6.56,3.04-12.59,8.04-16.48C14.87,7.71,6.5,16.77,6.5,27.76c0,3.7.97,7.35,2.8,10.54.41.72.16,1.64-.55,2.05-.72.41-1.63.16-2.05-.55-2.09-3.65-3.2-7.81-3.2-12.03C3.5,14.38,14.37,3.5,27.74,3.5c1.17,0,2.31.08,3.37.24.67.1,1.19.63,1.27,1.3s-.29,1.31-.91,1.57c-6.65,2.79-10.95,9.26-10.95,16.49,0,9.85,8.02,17.87,17.87,17.87,2.6,0,5.12-.55,7.46-1.63.62-.28,1.34-.12,1.78.4.44.52.47,1.26.08,1.82-3.37,4.86-8.38,8.32-14.1,9.74-.12.03-.24.04-.36.04Z"/>
    <path d="M40.99,33.57c-.29,0-.57-.08-.82-.24l-4.1-2.68-4.47,2.67c-.52.31-1.17.28-1.65-.07s-.71-.96-.58-1.55l1.17-5.11-3.95-3.45c-.45-.4-.63-1.02-.44-1.59s.69-.98,1.29-1.03l5.22-.47,2.06-4.82c.24-.55.78-.91,1.38-.91h0c.6,0,1.14.36,1.38.91l2.06,4.82,5.22.47c.61.05,1.12.47,1.3,1.05s-.01,1.22-.49,1.6l-4.29,3.5,1.16,5.08c.14.6-.1,1.22-.61,1.56-.26.18-.56.27-.86.27ZM31.2,23.18l1.98,1.73c.42.36.6.93.48,1.46l-.58,2.56,2.26-1.35c.49-.29,1.11-.28,1.59.03l1.78,1.16-.54-2.36c-.13-.56.07-1.14.51-1.5l2.16-1.76-2.45-.22c-.55-.05-1.03-.4-1.24-.9l-1.03-2.42-1.04,2.42c-.22.51-.69.85-1.24.9l-2.62.24Z"/>
    <path d="M27.64,60.4H11.28c-4.29,0-7.78-3.49-7.78-7.77,0-3.49,2.32-6.53,5.62-7.47,1.82-2.89,4.99-4.66,8.44-4.66s6.54,1.75,8.36,4.55c.57-.13,1.15-.2,1.72-.2,4.29,0,7.78,3.49,7.78,7.78s-3.49,7.77-7.78,7.77ZM17.56,43.5c-2.57,0-4.93,1.41-6.14,3.68-.21.4-.6.68-1.04.77-2.24.42-3.87,2.39-3.87,4.68,0,2.63,2.14,4.77,4.78,4.77h16.36c2.64,0,4.78-2.14,4.78-4.77s-2.14-4.78-4.78-4.78c-.63,0-1.26.13-1.84.38-.74.32-1.6,0-1.95-.74-1.15-2.42-3.62-3.99-6.3-3.99Z"/>
    <g>
      <path d="M55.69,36.87c-.83,0-1.5-.67-1.5-1.5v-6.61c0-.83.67-1.5,1.5-1.5s1.5.67,1.5,1.5v6.61c0,.83-.67,1.5-1.5,1.5Z"/>
      <path d="M59,33.57h-6.61c-.83,0-1.5-.67-1.5-1.5s.67-1.5,1.5-1.5h6.61c.83,0,1.5.67,1.5,1.5s-.67,1.5-1.5,1.5Z"/>
    </g>
    <g>
      <path d="M42.19,13.11c-.83,0-1.5-.67-1.5-1.5v-6.61c0-.83.67-1.5,1.5-1.5s1.5.67,1.5,1.5v6.61c0,.83-.67,1.5-1.5,1.5Z"/>
      <path d="M45.5,9.81h-6.61c-.83,0-1.5-.67-1.5-1.5s.67-1.5,1.5-1.5h6.61c.83,0,1.5.67,1.5,1.5s-.67,1.5-1.5,1.5Z"/>
    </g>
  </g>
  <path d="M53.51,24.09c-.68,0-1.28-.46-1.45-1.11l-.41-1.52c-.32-1.22-1.28-2.17-2.5-2.5l-1.52-.41c-.66-.17-1.11-.77-1.11-1.45s.46-1.27,1.11-1.45l1.52-.41c1.22-.32,2.17-1.28,2.5-2.5l.41-1.52c.17-.66.77-1.11,1.45-1.11s1.27.46,1.45,1.11l.41,1.52c.33,1.22,1.28,2.17,2.5,2.5h0l1.52.41c.66.17,1.11.77,1.11,1.45s-.46,1.27-1.11,1.45l-1.52.41c-1.22.32-2.17,1.28-2.5,2.5l-.41,1.52c-.17.66-.77,1.11-1.45,1.11ZM52.11,17.1c.54.39,1.01.87,1.4,1.4.39-.54.87-1.01,1.4-1.4-.54-.39-1.01-.87-1.4-1.4-.39.54-.87,1.01-1.4,1.4Z"/>
  <path d="M52.94,60.5c-.68,0-1.27-.46-1.45-1.11l-.45-1.68c-.37-1.4-1.47-2.49-2.86-2.86l-1.68-.45c-.66-.17-1.11-.77-1.11-1.45s.46-1.27,1.11-1.45l1.68-.45c1.4-.37,2.49-1.47,2.86-2.86l.45-1.68c.17-.66.77-1.11,1.45-1.11s1.27.46,1.45,1.11l.45,1.68c.37,1.4,1.47,2.49,2.86,2.86l1.68.45c.66.17,1.11.77,1.11,1.45s-.46,1.27-1.11,1.45l-1.68.45c-1.4.37-2.49,1.47-2.86,2.86l-.45,1.68c-.17.66-.77,1.11-1.45,1.11ZM51.13,52.94c.71.49,1.33,1.1,1.81,1.81.49-.71,1.1-1.33,1.81-1.81-.71-.49-1.33-1.1-1.81-1.81-.49.71-1.1,1.33-1.81,1.81Z"/>
</svg>