<?xml version="1.0" encoding="UTF-8"?>
<svg id="SOLID" xmlns="http://www.w3.org/2000/svg" viewBox="0 0 64 64">
  <defs>
    <style>
      .cls-1 {
        fill: #293a4c;
      }
    </style>
  </defs>
  <path class="cls-1" d="M45.65,16.59c-.39,0-.79-.15-1.08-.46-2.86-2.98-6.71-4.63-10.83-4.63-.83,0-1.5-.67-1.5-1.5s.67-1.5,1.5-1.5c4.95,0,9.56,1.97,12.99,5.55.57.6.55,1.55-.04,2.12-.29.28-.66.42-1.04.42Z"/>
  <path class="cls-1" d="M50.74,49.5H16.75c-2.27,0-4.12-1.85-4.12-4.12s1.85-4.14,4.12-4.14h33.99c2.27,0,4.12,1.85,4.12,4.12s-1.85,4.14-4.12,4.14ZM16.75,44.24c-.62,0-1.12.5-1.12,1.12s.5,1.14,1.12,1.14h33.99c.62,0,1.12-.5,1.12-1.12s-.5-1.14-1.12-1.14H16.75Z"/>
  <path class="cls-1" d="M55.99,60.5H11.5c-.83,0-1.5-.67-1.5-1.5v-2.63c0-2.28,1.85-4.13,4.13-4.13h39.23c2.28,0,4.13,1.85,4.13,4.13v2.63c0,.83-.67,1.5-1.5,1.5ZM13,57.5h41.49v-1.13c0-.62-.51-1.13-1.13-1.13H14.13c-.62,0-1.13.51-1.13,1.13v1.13Z"/>
  <g>
    <path class="cls-1" d="M48.66,55.24c-.83,0-1.5-.67-1.5-1.5v-5.74c0-.83.67-1.5,1.5-1.5s1.5.67,1.5,1.5v5.74c0,.83-.67,1.5-1.5,1.5Z"/>
    <path class="cls-1" d="M18.83,55.24c-.83,0-1.5-.67-1.5-1.5v-5.74c0-.83.67-1.5,1.5-1.5s1.5.67,1.5,1.5v5.74c0,.83-.67,1.5-1.5,1.5Z"/>
  </g>
  <path class="cls-1" d="M47.25,31.2c-.24,0-.49-.06-.71-.18l-2.43-1.3-2.43,1.3c-.51.27-1.12.23-1.59-.11-.47-.34-.7-.91-.59-1.48l.49-2.71-1.99-1.91c-.42-.4-.57-1-.39-1.55.18-.55.65-.94,1.22-1.02l2.73-.37,1.2-2.48c.25-.52.78-.85,1.35-.85s1.1.33,1.35.85l1.2,2.48,2.73.37c.57.08,1.05.48,1.22,1.02.18.55.03,1.15-.39,1.55l-1.99,1.91.49,2.71c.1.57-.13,1.14-.59,1.48-.26.19-.57.29-.88.29ZM44.11,26.52c.24,0,.49.06.71.18l.41.22-.08-.45c-.09-.49.08-1,.44-1.35l.33-.32-.46-.06c-.5-.07-.93-.38-1.15-.83l-.2-.41-.2.41c-.22.45-.65.77-1.15.83l-.46.06.33.32c.36.35.53.85.44,1.35l-.08.45.41-.22c.22-.12.47-.18.71-.18Z"/>
  <path class="cls-1" d="M22.17,38.2c-.31,0-.62-.1-.88-.29-.47-.34-.7-.91-.59-1.48l.77-4.29-3.15-3.02c-.42-.4-.57-1-.39-1.55.18-.55.65-.94,1.22-1.02l4.32-.59,1.9-3.93c.25-.52.78-.85,1.35-.85s1.1.33,1.35.85l1.9,3.93,4.32.59c.57.08,1.05.48,1.22,1.02s.03,1.15-.39,1.55l-3.15,3.02.77,4.29c.1.57-.13,1.14-.59,1.48-.47.34-1.08.38-1.59.11l-3.84-2.06-3.84,2.06c-.22.12-.47.18-.71.18ZM22.64,29.11l1.49,1.43c.36.35.53.85.44,1.35l-.36,2.03,1.82-.97c.44-.24.97-.24,1.42,0l1.82.97-.36-2.03c-.09-.49.08-1,.44-1.35l1.49-1.43-2.04-.28c-.5-.07-.93-.38-1.15-.83l-.9-1.86-.9,1.86c-.22.45-.65.77-1.15.83l-2.04.28Z"/>
  <path class="cls-1" d="M49.71,44.24c-.38,0-.76-.14-1.05-.43-.59-.58-.6-1.53-.03-2.12,3.78-3.88,5.86-9.01,5.86-14.44,0-11.44-9.31-20.75-20.75-20.75-4.87,0-9.6,1.71-13.3,4.83-.63.53-1.58.45-2.11-.18-.53-.63-.45-1.58.18-2.11,4.24-3.57,9.65-5.53,15.23-5.53,13.1,0,23.75,10.65,23.75,23.75,0,6.22-2.39,12.1-6.72,16.54-.29.3-.68.45-1.07.45Z"/>
  <path class="cls-1" d="M17.79,44.24c-.39,0-.78-.15-1.07-.45-4.33-4.44-6.72-10.32-6.72-16.54,0-1.16.08-2.33.25-3.47.12-.82.88-1.39,1.7-1.27.82.12,1.39.88,1.27,1.7-.15,1-.22,2.02-.22,3.03,0,5.44,2.08,10.56,5.86,14.44.58.59.57,1.54-.03,2.12-.29.28-.67.43-1.05.43Z"/>
  <g>
    <path class="cls-1" d="M17.5,5l.47,1.88c.88,3.52,3.63,6.27,7.15,7.15l1.88.47-1.88.47c-3.52.88-6.27,3.63-7.15,7.15l-.47,1.88-.47-1.88c-.88-3.52-3.63-6.27-7.15-7.15l-1.88-.47,1.88-.47c3.52-.88,6.27-3.63,7.15-7.15l.47-1.88Z"/>
    <path class="cls-1" d="M17.5,25.5c-.69,0-1.29-.47-1.46-1.14l-.47-1.88c-.74-2.99-3.06-5.31-6.06-6.06l-1.88-.47c-.67-.17-1.14-.77-1.14-1.46s.47-1.29,1.14-1.46l1.88-.47c2.99-.74,5.31-3.06,6.06-6.06l.47-1.88c.17-.67.77-1.14,1.46-1.14h0c.69,0,1.29.47,1.46,1.14l.47,1.88c.74,2.99,3.06,5.31,6.06,6.05l1.88.47c.67.17,1.14.77,1.14,1.46s-.47,1.29-1.14,1.46l-1.88.47c-2.99.74-5.31,3.06-6.06,6.06l-.47,1.88c-.17.67-.77,1.14-1.46,1.14ZM12.83,14.5c1.99,1.06,3.62,2.68,4.68,4.68,1.06-1.99,2.68-3.62,4.68-4.68-1.99-1.06-3.62-2.68-4.68-4.68-1.06,1.99-2.68,3.62-4.68,4.68Z"/>
  </g>
</svg>