<?xml version="1.0" encoding="UTF-8"?>
<svg id="SOLID" xmlns="http://www.w3.org/2000/svg" viewBox="0 0 64 64">
  <defs>
    <style>
      .cls-1 {
        fill: #293a4c;
      }
    </style>
  </defs>
  <path class="cls-1" d="M32,39.39c-9.89,0-17.94-8.05-17.94-17.94S22.11,3.5,32,3.5s17.94,8.05,17.94,17.94-8.05,17.94-17.94,17.94ZM32,6.5c-8.24,0-14.94,6.7-14.94,14.94s6.7,14.94,14.94,14.94,14.94-6.7,14.94-14.94-6.7-14.94-14.94-14.94Z"/>
  <path class="cls-1" d="M32,26.69c-2.89,0-5.24-2.35-5.24-5.24s2.35-5.24,5.24-5.24,5.24,2.35,5.24,5.24-2.35,5.24-5.24,5.24ZM32,19.2c-1.24,0-2.24,1.01-2.24,2.24s1.01,2.24,2.24,2.24,2.24-1.01,2.24-2.24-1.01-2.24-2.24-2.24Z"/>
  <path class="cls-1" d="M35.38,21.37c-.75,0-1.37-.54-1.48-1.25l-1.9-8.35-1.91,8.4c-.14.69-.74,1.2-1.47,1.2-.83,0-1.5-.67-1.5-1.49h0c0-.12.01-.24.04-.35l3.38-14.86c.16-.68.76-1.17,1.46-1.17s1.31.48,1.46,1.17l3.38,14.86c.02.11.04.22.04.33,0,.83-.67,1.51-1.5,1.51Z"/>
  <path class="cls-1" d="M32,39.39c-.7,0-1.31-.48-1.46-1.17l-3.38-14.85c-.02-.11-.04-.22-.04-.33,0-.83.67-1.51,1.5-1.51.75,0,1.37.54,1.48,1.25l1.9,8.35,1.91-8.39c.14-.69.74-1.2,1.47-1.2.83,0,1.5.67,1.5,1.49,0,.11-.01.24-.04.35l-3.38,14.85c-.16.68-.76,1.17-1.46,1.17Z"/>
  <path class="cls-1" d="M30.43,26.32h-.01c-.11,0-.22-.01-.33-.04l-14.86-3.38c-.68-.16-1.17-.76-1.17-1.46s.48-1.31,1.17-1.46l14.86-3.38c.92-.21,1.84.52,1.84,1.46,0,.75-.54,1.37-1.25,1.48l-8.35,1.9,8.4,1.91c.69.14,1.2.74,1.2,1.47,0,.83-.67,1.5-1.49,1.5Z"/>
  <path class="cls-1" d="M33.59,26.32c-.83,0-1.51-.67-1.51-1.5,0-.75.54-1.36,1.25-1.48l8.35-1.9-8.39-1.91c-.69-.14-1.2-.74-1.2-1.47,0-.83.67-1.5,1.49-1.5.11,0,.24.01.34.04l14.85,3.38c.68.16,1.17.76,1.17,1.46s-.48,1.31-1.17,1.46l-14.85,3.38c-.11.02-.22.04-.33.04Z"/>
  <path class="cls-1" d="M20.37,34.57c-.39,0-.77-.15-1.06-.44-.5-.5-.58-1.27-.21-1.86l8.12-12.9c.06-.09.13-.18.21-.26.59-.59,1.54-.59,2.13,0,.53.53.58,1.35.16,1.93l-4.56,7.25,7.29-4.59c.57-.38,1.35-.33,1.86.16.6.57.63,1.51.06,2.12h0c-.09.1-.18.18-.29.25l-12.9,8.12c-.25.15-.52.23-.8.23Z"/>
  <path class="cls-1" d="M35.51,24.21c-.37,0-.74-.13-1.03-.41-.55-.52-.62-1.36-.2-1.96l4.56-7.25-7.29,4.58c-.58.39-1.38.32-1.89-.19-.59-.59-.59-1.53,0-2.12.08-.08.18-.16.27-.22l12.89-8.11c.59-.37,1.36-.29,1.86.21.5.5.58,1.27.21,1.86l-8.11,12.89c-.05.08-.11.16-.18.23-.3.31-.7.47-1.1.47Z"/>
  <path class="cls-1" d="M43.63,34.57c-.28,0-.55-.08-.8-.23l-12.9-8.12c-.11-.07-.21-.15-.29-.24-.57-.6-.55-1.56.06-2.12.53-.5,1.33-.54,1.91-.13l7.25,4.56-4.59-7.29c-.39-.58-.33-1.38.19-1.89.59-.59,1.53-.59,2.12,0h0c.08.09.15.18.21.27l8.12,12.9c.37.59.29,1.36-.21,1.86-.29.29-.67.44-1.06.44Z"/>
  <path class="cls-1" d="M28.48,24.21c-.4,0-.79-.16-1.08-.47-.07-.07-.14-.16-.19-.24l-8.11-12.89c-.37-.59-.29-1.36.21-1.86.49-.5,1.27-.58,1.86-.21l12.89,8.11c.09.06.18.13.26.21.59.59.59,1.54,0,2.13-.53.53-1.35.58-1.93.16l-7.25-4.56,4.58,7.29c.39.6.32,1.41-.22,1.92-.29.27-.66.41-1.03.41Z"/>
  <g>
    <path class="cls-1" d="M32,53.12c-.83,0-1.5-.67-1.5-1.5v-13.73c0-.83.67-1.5,1.5-1.5s1.5.67,1.5,1.5v13.73c0,.83-.67,1.5-1.5,1.5Z"/>
    <path class="cls-1" d="M32,60.5h0c-.41,0-.81-.17-1.09-.47-.17-.18-4.11-4.4-4.11-9.76s3.95-9.58,4.11-9.76c.57-.6,1.61-.6,2.18,0,.17.18,4.12,4.4,4.12,9.76s-3.95,9.58-4.12,9.76c-.28.3-.68.47-1.09.47ZM32,43.99c-.96,1.41-2.2,3.73-2.2,6.29s1.24,4.89,2.2,6.29c.96-1.41,2.21-3.73,2.21-6.29s-1.24-4.88-2.2-6.29Z"/>
  </g>
  <g>
    <path class="cls-1" d="M20.37,48.3c-.83,0-1.5-.67-1.5-1.5v-13.73c0-.83.67-1.5,1.5-1.5s1.5.67,1.5,1.5v13.73c0,.83-.67,1.5-1.5,1.5Z"/>
    <path class="cls-1" d="M20.37,55.68c-.41,0-.81-.17-1.09-.47-.17-.18-4.12-4.4-4.12-9.76s3.95-9.58,4.12-9.76c.28-.3.68-.47,1.09-.47h0c.41,0,.81.17,1.09.47.17.18,4.11,4.4,4.11,9.76s-3.95,9.58-4.11,9.76c-.28.3-.68.47-1.09.47ZM20.38,39.17c-.96,1.41-2.21,3.73-2.21,6.29s1.24,4.88,2.2,6.29c.96-1.41,2.2-3.73,2.2-6.29s-1.24-4.89-2.2-6.29Z"/>
  </g>
  <g>
    <path class="cls-1" d="M43.63,48.3c-.83,0-1.5-.67-1.5-1.5v-13.73c0-.83.67-1.5,1.5-1.5s1.5.67,1.5,1.5v13.73c0,.83-.67,1.5-1.5,1.5Z"/>
    <path class="cls-1" d="M43.63,55.68h0c-.41,0-.81-.17-1.09-.47-.17-.18-4.11-4.4-4.11-9.76s3.95-9.58,4.11-9.76c.57-.6,1.61-.6,2.18,0,.17.18,4.12,4.4,4.12,9.76s-3.95,9.58-4.12,9.76c-.28.3-.68.47-1.09.47ZM43.63,39.17c-.96,1.41-2.2,3.73-2.2,6.29s1.24,4.89,2.2,6.29c.96-1.41,2.21-3.73,2.21-6.29s-1.24-4.88-2.2-6.29Z"/>
  </g>
  <path class="cls-1" d="M12.72,18.94c-3.43,0-6.22-2.79-6.22-6.22s2.79-6.22,6.22-6.22,6.22,2.79,6.22,6.22-2.79,6.22-6.22,6.22ZM12.72,9.5c-1.78,0-3.22,1.45-3.22,3.22s1.45,3.22,3.22,3.22,3.22-1.45,3.22-3.22-1.45-3.22-3.22-3.22Z"/>
  <path class="cls-1" d="M51.28,18.94c-3.43,0-6.22-2.79-6.22-6.22s2.79-6.22,6.22-6.22,6.22,2.79,6.22,6.22-2.79,6.22-6.22,6.22ZM51.28,9.5c-1.78,0-3.22,1.45-3.22,3.22s1.45,3.22,3.22,3.22,3.22-1.45,3.22-3.22-1.45-3.22-3.22-3.22Z"/>
  <g>
    <path class="cls-1" d="M10.06,29.83l.19.77c.5,2.02,2.08,3.59,4.09,4.09l.77.19-.77.19c-2.02.5-3.59,2.08-4.09,4.09l-.19.77-.19-.77c-.5-2.02-2.08-3.59-4.09-4.09l-.77-.19.77-.19c2.02-.5,3.59-2.08,4.09-4.09l.19-.77Z"/>
    <path class="cls-1" d="M10.06,41.44c-.69,0-1.29-.47-1.46-1.14l-.19-.77c-.37-1.48-1.52-2.63-3-3l-.77-.19c-.67-.17-1.14-.77-1.14-1.46s.47-1.29,1.14-1.46l.77-.19c1.48-.37,2.63-1.52,3-3l.19-.77c.17-.67.77-1.14,1.46-1.14s1.29.47,1.46,1.14l.19.77c.37,1.48,1.52,2.63,3,3l.77.19c.67.17,1.14.77,1.14,1.46s-.47,1.29-1.14,1.46l-.77.19c-1.48.37-2.63,1.52-3,3l-.19.77c-.17.67-.77,1.14-1.46,1.14ZM8.76,34.88c.49.38.92.81,1.3,1.3.38-.49.81-.92,1.3-1.3-.49-.38-.92-.81-1.3-1.3-.38.49-.81.92-1.3,1.3Z"/>
  </g>
  <g>
    <path class="cls-1" d="M53.94,29.83l.19.77c.5,2.02,2.08,3.59,4.09,4.09l.77.19-.77.19c-2.02.5-3.59,2.08-4.09,4.09l-.19.77-.19-.77c-.5-2.02-2.08-3.59-4.09-4.09l-.77-.19.77-.19c2.02-.5,3.59-2.08,4.09-4.09l.19-.77Z"/>
    <path class="cls-1" d="M53.94,41.44c-.69,0-1.29-.47-1.46-1.14l-.19-.77c-.37-1.48-1.52-2.63-3-3l-.77-.19c-.67-.17-1.14-.77-1.14-1.46s.47-1.29,1.14-1.46l.77-.19c1.48-.37,2.63-1.52,3-3l.19-.77c.17-.67.77-1.14,1.46-1.14s1.29.47,1.46,1.14l.19.77c.37,1.48,1.52,2.63,3,3l.77.19c.67.17,1.14.77,1.14,1.46s-.47,1.29-1.14,1.46l-.77.19c-1.48.37-2.63,1.52-3,3l-.19.77c-.17.67-.77,1.14-1.46,1.14ZM52.64,34.88c.49.38.92.81,1.3,1.3.38-.49.81-.92,1.3-1.3-.49-.38-.92-.81-1.3-1.3-.38.49-.81.92-1.3,1.3Z"/>
  </g>
</svg>