<?xml version="1.0" encoding="UTF-8"?>
<svg id="SOLID_BLCK" data-name="SOLID BLCK" xmlns="http://www.w3.org/2000/svg" viewBox="0 0 64 64">
  <g>
    <g>
      <g>
        <path d="M33.2,46.23c-2.46,0-5.07-.53-7.87-1.6-.52-.2-.88-.67-.95-1.22-.07-.55.17-1.09.63-1.41l.95-.66C6.13,34.43,3.5,19.26,3.5,6.62c0-.83.67-1.5,1.5-1.5,9.13,0,16.19,2.14,20.57,12.08.56-1.3.63-2.37.66-3.64,0-.55.32-1.05.81-1.31.49-.25,1.08-.22,1.53.09.57.39,13.96,9.71,14.29,24.9.02.83-.64,1.51-1.47,1.53-.84.02-1.51-.64-1.53-1.47-.22-10.2-7.31-17.68-10.92-20.83-.32,1.44-.99,3.03-2.45,5.02-.33.45-.88.68-1.44.6-.55-.08-1.01-.47-1.19-1-3.5-10.31-8.86-12.72-17.34-12.95.38,17.37,7.38,26.75,23.2,31.24.56.16.97.62,1.07,1.19.1.57-.14,1.15-.62,1.48l-.95.66c3.76.92,7.08.58,10.09-1.01.73-.39,1.64-.11,2.03.62.39.73.11,1.64-.62,2.03-2.36,1.25-4.85,1.88-7.51,1.88Z"/>
        <path d="M34.46,38.97c-.25,0-.5-.06-.74-.2C20.76,31.43,11.66,19.38,3.75,7.45c-.46-.69-.27-1.62.42-2.08.69-.46,1.62-.27,2.08.42,7.7,11.62,16.54,23.34,28.95,30.38.72.41.97,1.32.56,2.04-.28.49-.78.76-1.31.76Z"/>
      </g>
      <path d="M47.51,52.03c-.38,0-.77-.15-1.06-.44l-13.05-13.06c-.42-.42-.55-1.06-.33-1.62s.75-.93,1.35-.94l6.9-.19c.38-.01.81.15,1.1.44l11.18,11.18c.59.59.59,1.54,0,2.12s-1.54.59-2.12,0l-10.73-10.73-2.77.07,10.59,10.59c.59.59.59,1.54,0,2.12-.29.29-.68.44-1.06.44Z"/>
      <path d="M59,58.93c-.12,0-.25-.02-.37-.05-5.55-1.41-8.59-3.75-8.72-3.85-.05-.04-.09-.08-.14-.12l-3.32-3.32c-.36-.35-.51-.86-.41-1.36.1-.49.44-.9.9-1.09l5.03-2.06c.56-.23,1.2-.1,1.63.33l1.56,1.56c.07.07.13.15.19.23l4.9,7.4c.34.52.33,1.19-.03,1.7-.29.4-.75.63-1.22.63ZM51.82,52.71c.28.2,1.48,1.03,3.52,1.91l-2.41-3.64-.74-.74-2.02.83,1.65,1.65Z"/>
    </g>
    <path d="M9.21,27.95c-.77,0-1.42-.58-1.49-1.36-.08-.82.53-1.56,1.36-1.63l4.34-.4c.83-.08,1.55.53,1.63,1.36.08.82-.53,1.56-1.36,1.63l-4.34.4s-.09,0-.14,0Z"/>
    <path d="M32.26,24.13c-.06,0-.13,0-.19-.01-.82-.1-1.4-.85-1.3-1.68l.57-4.49c.1-.82.85-1.4,1.68-1.3.82.1,1.4.85,1.3,1.68l-.57,4.49c-.1.76-.74,1.31-1.49,1.31Z"/>
    <path d="M15.85,35.77c-.73,0-1.38-.54-1.48-1.29-.12-.82.45-1.58,1.27-1.7l4.41-.63c.82-.12,1.58.45,1.7,1.27.12.82-.45,1.58-1.27,1.7l-4.41.63c-.07.01-.14.02-.21.02Z"/>
    <path d="M36.84,31.91c-.05,0-.11,0-.16,0-.82-.09-1.42-.83-1.33-1.65l.65-6.09c.09-.82.83-1.42,1.65-1.33.82.09,1.42.83,1.33,1.65l-.65,6.09c-.08.77-.73,1.34-1.49,1.34Z"/>
  </g>
  <g>
    <path d="M19.4,47.3h0c.72,2.88,2.97,5.13,5.85,5.85h0,0c-2.88.72-5.13,2.97-5.85,5.85h0s0,0,0,0c-.72-2.88-2.97-5.13-5.85-5.85h0,0c2.88-.72,5.13-2.97,5.85-5.85h0Z"/>
    <path d="M19.4,60.5c-.69,0-1.29-.47-1.46-1.14-.58-2.35-2.41-4.17-4.75-4.75-.67-.17-1.14-.77-1.14-1.46s.47-1.29,1.14-1.46c2.35-.58,4.17-2.41,4.75-4.75.17-.67.77-1.14,1.46-1.14s1.29.47,1.46,1.14c.58,2.35,2.41,4.17,4.75,4.75.67.17,1.14.77,1.14,1.46s-.47,1.29-1.14,1.46c-2.35.58-4.17,2.41-4.75,4.75-.17.67-.77,1.14-1.46,1.14ZM17.11,53.15c.89.63,1.67,1.4,2.3,2.3.63-.89,1.41-1.67,2.3-2.3-.89-.63-1.67-1.4-2.3-2.3-.63.89-1.4,1.67-2.3,2.3Z"/>
  </g>
  <g>
    <path d="M43.89,5h0c.72,2.88,2.97,5.13,5.85,5.85h0,0c-2.88.72-5.13,2.97-5.85,5.85h0s0,0,0,0c-.72-2.88-2.97-5.13-5.85-5.85h0,0c2.88-.72,5.13-2.97,5.85-5.85h0Z"/>
    <path d="M43.89,18.2c-.69,0-1.29-.47-1.46-1.14-.58-2.35-2.41-4.17-4.75-4.75-.67-.17-1.14-.77-1.14-1.46s.47-1.29,1.14-1.46c2.35-.58,4.17-2.41,4.75-4.75.17-.67.77-1.14,1.46-1.14s1.29.47,1.46,1.14c.58,2.35,2.41,4.17,4.75,4.75.67.17,1.14.77,1.14,1.46s-.47,1.29-1.14,1.46c-2.35.58-4.17,2.41-4.75,4.75-.17.67-.77,1.14-1.46,1.14ZM41.6,10.85c.89.63,1.67,1.4,2.3,2.3.63-.89,1.4-1.67,2.3-2.3-.89-.63-1.67-1.4-2.3-2.3-.63.89-1.4,1.67-2.3,2.3Z"/>
  </g>
  <g>
    <path d="M53.08,33.8c-.83,0-1.5-.67-1.5-1.5v-5.85c0-.83.67-1.5,1.5-1.5s1.5.67,1.5,1.5v5.85c0,.83-.67,1.5-1.5,1.5Z"/>
    <path d="M56,30.87h-5.85c-.83,0-1.5-.67-1.5-1.5s.67-1.5,1.5-1.5h5.85c.83,0,1.5.67,1.5,1.5s-.67,1.5-1.5,1.5Z"/>
  </g>
  <g>
    <path d="M8,45.58c-.83,0-1.5-.67-1.5-1.5v-5.85c0-.83.67-1.5,1.5-1.5s1.5.67,1.5,1.5v5.85c0,.83-.67,1.5-1.5,1.5Z"/>
    <path d="M10.92,42.66h-5.85c-.83,0-1.5-.67-1.5-1.5s.67-1.5,1.5-1.5h5.85c.83,0,1.5.67,1.5,1.5s-.67,1.5-1.5,1.5Z"/>
  </g>
</svg>