<?xml version="1.0" encoding="UTF-8"?>
<svg id="SOLID" xmlns="http://www.w3.org/2000/svg" viewBox="0 0 64 64">
  <defs>
    <style>
      .cls-1 {
        fill: #293a4c;
      }
    </style>
  </defs>
  <path class="cls-1" d="M51.06,22.39c-.69,0-1.29-.47-1.46-1.14l-.16-.64c-.74-2.99-3.06-5.31-6.06-6.06l-.64-.16c-.67-.17-1.14-.77-1.14-1.46s.47-1.29,1.14-1.46l.64-.16c2.99-.74,5.31-3.06,6.06-6.06l.16-.64c.17-.67.77-1.14,1.46-1.14s1.29.47,1.46,1.14l.16.64c.74,2.99,3.06,5.31,6.06,6.05l.64.16c.67.17,1.14.77,1.14,1.46s-.47,1.29-1.14,1.46l-.64.16c-2.99.74-5.31,3.06-6.06,6.06l-.16.64c-.17.67-.77,1.14-1.46,1.14ZM47.24,12.94c1.56.94,2.87,2.26,3.82,3.82.95-1.56,2.25-2.87,3.82-3.82-1.56-.94-2.88-2.25-3.82-3.82-.95,1.56-2.25,2.87-3.82,3.82Z"/>
  <path class="cls-1" d="M27.81,21.77c-.69,0-1.29-.47-1.46-1.14-.53-2.12-2.18-3.77-4.3-4.3-.67-.17-1.14-.77-1.14-1.46s.47-1.29,1.14-1.46c2.12-.53,3.77-2.18,4.3-4.3.17-.67.77-1.14,1.46-1.14s1.29.47,1.46,1.14c.53,2.12,2.18,3.77,4.3,4.3.67.17,1.14.77,1.14,1.46s-.47,1.29-1.14,1.46c-2.12.53-3.77,2.18-4.3,4.3-.17.67-.77,1.14-1.46,1.14ZM25.9,14.87c.73.54,1.38,1.18,1.92,1.92.54-.73,1.18-1.38,1.92-1.92-.73-.54-1.38-1.18-1.92-1.92-.54.73-1.18,1.38-1.92,1.92Z"/>
  <path class="cls-1" d="M49.54,39.76c-.69,0-1.29-.47-1.46-1.14-.53-2.12-2.18-3.77-4.3-4.3-.67-.17-1.14-.77-1.14-1.46s.47-1.29,1.14-1.46c2.12-.53,3.77-2.18,4.3-4.3.17-.67.77-1.14,1.46-1.14s1.29.47,1.46,1.14c.53,2.12,2.18,3.77,4.3,4.3.67.17,1.14.77,1.14,1.46s-.47,1.29-1.14,1.46c-2.12.53-3.77,2.18-4.3,4.3-.17.67-.77,1.14-1.46,1.14ZM47.62,32.87c.73.54,1.38,1.18,1.92,1.92.54-.73,1.18-1.38,1.92-1.92-.73-.54-1.38-1.18-1.92-1.92-.54.73-1.18,1.38-1.92,1.92Z"/>
  <g>
    <path class="cls-1" d="M9.29,60.5c-.38,0-.77-.15-1.06-.44l-4.29-4.29c-.59-.59-.59-1.54,0-2.12l28.68-28.68c.59-.59,1.54-.59,2.12,0,.59.59.59,1.54,0,2.12L7.12,54.71l2.17,2.17,23.9-23.9c.59-.59,1.54-.59,2.12,0,.59.59.59,1.54,0,2.12l-24.96,24.96c-.29.29-.68.44-1.06.44Z"/>
    <g>
      <rect class="cls-1" x="34.36" y="21.62" width="9.97" height="6.07" transform="translate(-5.9 35.04) rotate(-45)"/>
      <path class="cls-1" d="M37.97,31.82c-.38,0-.77-.15-1.06-.44l-4.29-4.29c-.59-.59-.59-1.54,0-2.12l7.05-7.05c.59-.59,1.54-.59,2.12,0l4.29,4.29c.59.59.59,1.54,0,2.12l-7.05,7.05c-.29.29-.68.44-1.06.44ZM35.8,26.03l2.17,2.17,4.93-4.93-2.17-2.17-4.93,4.93Z"/>
    </g>
    <path class="cls-1" d="M31.75,38.04c-.38,0-.77-.15-1.06-.44l-4.29-4.29c-.59-.59-.59-1.54,0-2.12.59-.59,1.54-.59,2.12,0l4.29,4.29c.59.59.59,1.54,0,2.12-.29.29-.68.44-1.06.44Z"/>
  </g>
  <g>
    <g>
      <path class="cls-1" d="M12.87,21.41c-.83,0-1.5-.67-1.5-1.5v-1.28c0-.83.67-1.5,1.5-1.5s1.5.67,1.5,1.5v1.28c0,.83-.67,1.5-1.5,1.5Z"/>
      <path class="cls-1" d="M12.87,29.28c-.83,0-1.5-.67-1.5-1.5v-1.28c0-.83.67-1.5,1.5-1.5s1.5.67,1.5,1.5v1.28c0,.83-.67,1.5-1.5,1.5Z"/>
    </g>
    <g>
      <path class="cls-1" d="M9.57,24.7h-1.28c-.83,0-1.5-.67-1.5-1.5s.67-1.5,1.5-1.5h1.28c.83,0,1.5.67,1.5,1.5s-.67,1.5-1.5,1.5Z"/>
      <path class="cls-1" d="M17.45,24.7h-1.28c-.83,0-1.5-.67-1.5-1.5s.67-1.5,1.5-1.5h1.28c.83,0,1.5.67,1.5,1.5s-.67,1.5-1.5,1.5Z"/>
    </g>
  </g>
  <g>
    <g>
      <path class="cls-1" d="M44.15,45.42c-.83,0-1.5-.67-1.5-1.5v-1.28c0-.83.67-1.5,1.5-1.5s1.5.67,1.5,1.5v1.28c0,.83-.67,1.5-1.5,1.5Z"/>
      <path class="cls-1" d="M44.15,53.3c-.83,0-1.5-.67-1.5-1.5v-1.28c0-.83.67-1.5,1.5-1.5s1.5.67,1.5,1.5v1.28c0,.83-.67,1.5-1.5,1.5Z"/>
    </g>
    <g>
      <path class="cls-1" d="M40.85,48.72h-1.28c-.83,0-1.5-.67-1.5-1.5s.67-1.5,1.5-1.5h1.28c.83,0,1.5.67,1.5,1.5s-.67,1.5-1.5,1.5Z"/>
      <path class="cls-1" d="M48.72,48.72h-1.28c-.83,0-1.5-.67-1.5-1.5s.67-1.5,1.5-1.5h1.28c.83,0,1.5.67,1.5,1.5s-.67,1.5-1.5,1.5Z"/>
    </g>
  </g>
</svg>