<?xml version="1.0" encoding="UTF-8"?>
<svg id="LINE_BLCK" data-name="LINE BLCK" xmlns="http://www.w3.org/2000/svg" viewBox="0 0 64 64">
  <g>
    <path d="M42.33,60.5h-20.67c-1.76,0-3.36-1.03-4.09-2.63l-5.09-11.13c-1.93-4.22-.46-9.32,3.44-11.85l7.42-4.84c.24-.16.47-.3.68-.43q1.33-.83,1.22-1.78l-.4-3.42c-.1-.82.49-1.57,1.32-1.66.82-.09,1.57.49,1.67,1.32l.4,3.42c.34,2.84-1.16,3.77-2.61,4.68-.2.12-.41.25-.63.4l-7.42,4.84c-2.66,1.73-3.67,5.21-2.35,8.09l5.09,11.13c.24.53.78.88,1.36.88h20.67c.58,0,1.12-.34,1.36-.88l5.09-11.13c1.32-2.88.31-6.36-2.34-8.09l-7.42-4.84c-.22-.14-.43-.28-.63-.4-1.45-.9-2.95-1.84-2.61-4.68l.4-3.42c.1-.82.86-1.41,1.66-1.32.82.1,1.41.84,1.32,1.66l-.4,3.42q-.11.95,1.21,1.78c.21.13.44.27.68.43l7.42,4.84c3.89,2.54,5.37,7.63,3.43,11.85l-5.09,11.13c-.73,1.6-2.34,2.63-4.09,2.63Z"/>
    <path d="M40.1,55.24h-16.21c-1,0-1.91-.58-2.32-1.49l-4.21-9.26c-.72-1.61-.18-3.47,1.28-4.44l2.08-1.37c3.89-2.46,7.18-1.33,10.36-.25,3.25,1.11,6.31,2.16,10.72.14.47-.21,1.02-.17,1.45.11l2.08,1.37c1.46.96,2.01,2.88,1.28,4.45l-4.2,9.24c-.41.91-1.32,1.49-2.32,1.49ZM24.19,52.24h15.62l4.07-8.98s0,0,0-.01c.11-.24.02-.54-.21-.69l-1.4-.92c-5.1,2.05-9,.72-12.16-.36-2.96-1.01-5.11-1.74-7.76-.07l-2.05,1.35c-.23.15-.31.44-.2.7l4.08,8.98Z"/>
    <path d="M34.46,19.6c-.07,0-.14,0-.21-.01-.82-.11-1.39-.87-1.28-1.69l.81-5.87c.16-1.19.81-2.23,1.78-2.85.46-.3.75-.64.75-.89,0-.63-1.64-1.78-4.31-1.78s-4.31,1.15-4.31,1.78c0,.25.29.6.75.89.97.62,1.62,1.66,1.78,2.85l.81,5.87c.11.82-.46,1.58-1.28,1.69-.83.11-1.58-.46-1.69-1.28l-.81-5.87c-.04-.32-.2-.59-.43-.74-1.37-.88-2.13-2.09-2.13-3.42,0-2.73,3.14-4.78,7.31-4.78s7.31,2.05,7.31,4.78c0,1.32-.76,2.54-2.13,3.42-.22.14-.38.42-.43.73l-.81,5.87c-.1.75-.75,1.3-1.48,1.3Z"/>
    <path d="M38.25,25.75h-12.49c-2.52,0-4.58-2.05-4.58-4.58s2.05-4.58,4.58-4.58h12.49c2.52,0,4.58,2.05,4.58,4.58s-2.05,4.58-4.58,4.58ZM25.75,19.6c-.87,0-1.58.71-1.58,1.58s.71,1.58,1.58,1.58h12.49c.87,0,1.58-.71,1.58-1.58s-.71-1.58-1.58-1.58h-12.49Z"/>
  </g>
  <path d="M10.85,18.2c-.69,0-1.29-.47-1.46-1.14-.58-2.35-2.41-4.17-4.75-4.75-.67-.17-1.14-.77-1.14-1.46s.47-1.29,1.14-1.46c2.35-.58,4.17-2.41,4.75-4.75.17-.67.77-1.14,1.46-1.14s1.29.47,1.46,1.14c.58,2.35,2.41,4.17,4.75,4.75.67.17,1.14.77,1.14,1.46s-.47,1.29-1.14,1.46c-2.35.58-4.17,2.41-4.75,4.75-.17.67-.77,1.14-1.46,1.14ZM8.55,10.85c.89.63,1.67,1.4,2.3,2.3.63-.89,1.41-1.67,2.3-2.3-.89-.63-1.67-1.4-2.3-2.3-.63.89-1.4,1.67-2.3,2.3Z"/>
  <path d="M53.15,34.37c-.69,0-1.29-.47-1.46-1.14-.58-2.35-2.41-4.17-4.75-4.75-.67-.17-1.14-.77-1.14-1.46s.47-1.29,1.14-1.46c2.35-.58,4.17-2.41,4.75-4.75.17-.67.77-1.14,1.46-1.14s1.29.47,1.46,1.14c.58,2.35,2.41,4.17,4.75,4.75.67.17,1.14.77,1.14,1.46s-.47,1.29-1.14,1.46c-2.35.58-4.17,2.41-4.75,4.75-.17.67-.77,1.14-1.46,1.14ZM50.86,27.02c.89.63,1.67,1.4,2.3,2.3.63-.89,1.4-1.67,2.3-2.3-.89-.63-1.67-1.4-2.3-2.3-.63.89-1.41,1.67-2.3,2.3Z"/>
  <g>
    <path d="M14.72,30.58c-.83,0-1.5-.67-1.5-1.5v-5.85c0-.83.67-1.5,1.5-1.5s1.5.67,1.5,1.5v5.85c0,.83-.67,1.5-1.5,1.5Z"/>
    <path d="M17.64,27.65h-5.85c-.83,0-1.5-.67-1.5-1.5s.67-1.5,1.5-1.5h5.85c.83,0,1.5.67,1.5,1.5s-.67,1.5-1.5,1.5Z"/>
  </g>
  <g>
    <path d="M47.51,17.25c-.83,0-1.5-.67-1.5-1.5v-5.85c0-.83.67-1.5,1.5-1.5s1.5.67,1.5,1.5v5.85c0,.83-.67,1.5-1.5,1.5Z"/>
    <path d="M50.44,14.32h-5.85c-.83,0-1.5-.67-1.5-1.5s.67-1.5,1.5-1.5h5.85c.83,0,1.5.67,1.5,1.5s-.67,1.5-1.5,1.5Z"/>
  </g>
</svg>