<?xml version="1.0" encoding="UTF-8"?>
<svg id="LINE_BLCK" data-name="LINE BLCK" xmlns="http://www.w3.org/2000/svg" viewBox="0 0 64 64">
  <path d="M42.8,60.5H15.2c-2.79,0-5.07-2.27-5.07-5.07V14.57c0-2.79,2.27-5.07,5.07-5.07h27.6c2.79,0,5.07,2.27,5.07,5.07v40.87c0,2.79-2.27,5.07-5.07,5.07ZM15.2,12.5c-1.14,0-2.07.93-2.07,2.07v40.87c0,1.14.93,2.07,2.07,2.07h27.6c1.14,0,2.07-.93,2.07-2.07V14.57c0-1.14-.93-2.07-2.07-2.07H15.2Z"/>
  <path d="M48.79,54.5h-2.43c-.83,0-1.5-.67-1.5-1.5s.67-1.5,1.5-1.5h2.43c1.14,0,2.07-.93,2.07-2.07V8.57c0-1.14-.93-2.07-2.07-2.07h-27.59c-1.14,0-2.07.93-2.07,2.07v2.43c0,.83-.67,1.5-1.5,1.5s-1.5-.67-1.5-1.5v-2.43c0-2.8,2.27-5.07,5.07-5.07h27.59c2.8,0,5.07,2.27,5.07,5.07v40.86c0,2.8-2.27,5.07-5.07,5.07Z"/>
  <g>
    <path d="M19.41,53.81h-2.13c-.83,0-1.5-.67-1.5-1.5s.67-1.5,1.5-1.5h2.13c.83,0,1.5.67,1.5,1.5s-.67,1.5-1.5,1.5Z"/>
    <path d="M40.71,53.81h-2.13c-.83,0-1.5-.67-1.5-1.5s.67-1.5,1.5-1.5h2.13c.83,0,1.5.67,1.5,1.5s-.67,1.5-1.5,1.5Z"/>
    <path d="M19.41,19.19h-2.13c-.83,0-1.5-.67-1.5-1.5s.67-1.5,1.5-1.5h2.13c.83,0,1.5.67,1.5,1.5s-.67,1.5-1.5,1.5Z"/>
    <path d="M40.71,19.19h-2.13c-.83,0-1.5-.67-1.5-1.5s.67-1.5,1.5-1.5h2.13c.83,0,1.5.67,1.5,1.5s-.67,1.5-1.5,1.5Z"/>
  </g>
  <path d="M29.98,47.67c-6.98,0-12.67-5.68-12.67-12.67s5.68-12.68,12.67-12.68c.6,0,1.19.04,1.76.12.67.1,1.19.62,1.28,1.29s-.29,1.31-.91,1.57c-2.98,1.25-4.91,4.15-4.91,7.39,0,4.42,3.59,8.01,8.01,8.01,1.17,0,2.29-.25,3.34-.73.61-.28,1.34-.12,1.78.4.44.52.47,1.26.08,1.82-2.37,3.42-6.27,5.46-10.44,5.46ZM26.48,25.98c-3.61,1.41-6.17,4.92-6.17,9.02,0,5.33,4.34,9.67,9.67,9.67,1.5,0,2.96-.35,4.27-.99-5.62-.49-10.05-5.22-10.05-10.97,0-2.49.83-4.84,2.28-6.73Z"/>
</svg>