<?xml version="1.0" encoding="UTF-8"?>
<svg id="SOLID" xmlns="http://www.w3.org/2000/svg" viewBox="0 0 64 64">
  <defs>
    <style>
      .cls-1 {
        fill: #293a4c;
      }
    </style>
  </defs>
  <path class="cls-1" d="M59,60.5H5c-.52,0-1-.27-1.28-.71-.27-.44-.3-.99-.07-1.46l7.92-15.84c.37-.74,1.27-1.04,2.01-.67.74.37,1.04,1.27.67,2.01l-6.83,13.67h49.15l-6.83-13.67c-.37-.74-.07-1.64.67-2.01.74-.37,1.64-.07,2.01.67l7.92,15.84c.23.46.21,1.02-.07,1.46-.27.44-.76.71-1.28.71Z"/>
  <path class="cls-1" d="M43.22,28.95c-.55,0-1.08-.3-1.34-.83l-9.88-19.77-9.88,19.77c-.37.74-1.27,1.04-2.01.67-.74-.37-1.04-1.27-.67-2.01L30.66,4.33c.25-.51.77-.83,1.34-.83s1.09.32,1.34.83l11.22,22.45c.37.74.07,1.64-.67,2.01-.22.11-.44.16-.67.16Z"/>
  <path class="cls-1" d="M32,50.61c-15.35,0-27.54-11.82-28.05-12.32-.29-.28-.45-.67-.45-1.07s.16-.79.45-1.07c.51-.5,12.7-12.32,28.05-12.32s27.54,11.82,28.05,12.32c.29.28.45.67.45,1.07s-.16.79-.45,1.07c-.22.21-5.41,5.27-13.25,8.86-.75.34-1.64.01-1.99-.74s-.01-1.64.74-1.99c5.26-2.41,9.31-5.57,11.2-7.2-3.33-2.85-13.26-10.39-24.76-10.39s-21.43,7.54-24.76,10.39c3.33,2.85,13.26,10.39,24.76,10.39.83,0,1.5.67,1.5,1.5s-.67,1.5-1.5,1.5Z"/>
  <g>
    <path class="cls-1" d="M35.2,37.22c0,1.77-1.43,3.21-3.2,3.21s-3.2-1.44-3.2-3.21,1.43-3.2,3.2-3.2,3.2,1.44,3.2,3.2Z"/>
    <path class="cls-1" d="M39.24,27.78c-2.01-1.54-4.52-2.45-7.24-2.45s-5.22.91-7.23,2.45c-2.83,2.17-4.66,5.59-4.66,9.44s1.82,7.26,4.65,9.44c2.01,1.54,4.52,2.45,7.24,2.45.51,0,1-.03,1.49-.1,5.87-.73,10.4-5.73,10.4-11.79,0-3.85-1.82-7.26-4.65-9.44ZM32,43.43c-3.42,0-6.2-2.79-6.2-6.21s2.78-6.2,6.2-6.2,6.2,2.78,6.2,6.2-2.78,6.21-6.2,6.21Z"/>
    <path class="cls-1" d="M42.35,28.74h0c-2.3-2.82-5.72-4.67-9.57-4.89-.25-.01-.51-.02-.77-.02s-.52.01-.77.02c-3.85.22-7.27,2.08-9.58,4.88-1.9,2.31-3.04,5.27-3.04,8.49s1.13,6.16,3.02,8.47c2.31,2.81,5.74,4.68,9.59,4.9.26.01.52.02.78.02,7.38,0,13.39-6,13.39-13.39,0-3.22-1.14-6.17-3.04-8.48ZM32,47.61c-.18,0-.36,0-.53-.01-5.49-.28-9.86-4.83-9.86-10.38s4.37-10.1,9.86-10.38c.17-.01.35-.01.53-.01s.36,0,.53.01c5.49.28,9.86,4.83,9.86,10.38s-4.66,10.39-10.39,10.39Z"/>
  </g>
</svg>