<?xml version="1.0" encoding="UTF-8"?>
<svg id="LINE_BLCK" data-name="LINE BLCK" xmlns="http://www.w3.org/2000/svg" viewBox="0 0 64 64">
  <path d="M59,60.5H5c-.52,0-1-.27-1.28-.71-.27-.44-.3-.99-.07-1.46l7.92-15.84c.37-.74,1.27-1.04,2.01-.67.74.37,1.04,1.27.67,2.01l-6.83,13.67h49.15l-6.83-13.67c-.37-.74-.07-1.64.67-2.01.74-.37,1.64-.07,2.01.67l7.92,15.84c.23.46.21,1.02-.07,1.46-.27.44-.76.71-1.28.71Z"/>
  <path d="M43.22,28.95c-.55,0-1.08-.3-1.34-.83l-9.88-19.77-9.88,19.77c-.37.74-1.27,1.04-2.01.67-.74-.37-1.04-1.27-.67-2.01L30.66,4.33c.25-.51.77-.83,1.34-.83s1.09.32,1.34.83l11.22,22.45c.37.74.07,1.64-.67,2.01-.22.11-.44.16-.67.16Z"/>
  <path d="M32,50.61c-15.35,0-27.54-11.82-28.05-12.32-.29-.28-.45-.67-.45-1.07s.16-.79.45-1.07c.51-.5,12.7-12.32,28.05-12.32s27.54,11.82,28.05,12.32c.29.28.45.67.45,1.07s-.16.79-.45,1.07c-.22.21-5.41,5.27-13.25,8.86-.75.34-1.64.01-1.99-.74s-.01-1.64.74-1.99c5.26-2.41,9.31-5.57,11.2-7.2-3.33-2.85-13.26-10.39-24.76-10.39s-21.43,7.54-24.76,10.39c3.33,2.85,13.26,10.39,24.76,10.39.83,0,1.5.67,1.5,1.5s-.67,1.5-1.5,1.5Z"/>
  <path d="M32,50.61c-7.38,0-13.39-6.01-13.39-13.39s6.01-13.39,13.39-13.39,13.39,6.01,13.39,13.39-6.01,13.39-13.39,13.39ZM32,26.83c-5.73,0-10.39,4.66-10.39,10.39s4.66,10.39,10.39,10.39,10.39-4.66,10.39-10.39-4.66-10.39-10.39-10.39Z"/>
  <path d="M32,43.43c-3.42,0-6.2-2.78-6.2-6.2s2.78-6.2,6.2-6.2,6.2,2.78,6.2,6.2-2.78,6.2-6.2,6.2ZM32,34.02c-1.77,0-3.2,1.44-3.2,3.2s1.44,3.2,3.2,3.2,3.2-1.44,3.2-3.2-1.44-3.2-3.2-3.2Z"/>
</svg>