<?xml version="1.0" encoding="UTF-8"?>
<svg id="SOLID" xmlns="http://www.w3.org/2000/svg" viewBox="0 0 64 64">
  <defs>
    <style>
      .cls-1 {
        fill: #293a4c;
      }
    </style>
  </defs>
  <path class="cls-1" d="M32,60.5c-14.16,0-28.5-3.41-28.5-9.94,0-3.41,3.88-6.19,11.23-8.05.81-.2,1.62.28,1.82,1.09.2.8-.28,1.62-1.09,1.82-6.19,1.57-8.97,3.71-8.97,5.15,0,2.83,9.93,6.94,25.5,6.94s25.5-4.11,25.5-6.94c0-1.43-2.77-3.58-8.97-5.15-.8-.2-1.29-1.02-1.09-1.82.2-.8,1.02-1.29,1.82-1.09,7.35,1.86,11.23,4.65,11.23,8.05,0,6.53-14.34,9.94-28.5,9.94Z"/>
  <path class="cls-1" d="M32,60.5c-14.16,0-28.5-3.41-28.5-9.94,0-3.41,3.88-6.19,11.23-8.05.81-.2,1.62.28,1.82,1.09.2.8-.28,1.62-1.09,1.82-6.19,1.57-8.97,3.71-8.97,5.15,0,2.83,9.93,6.94,25.5,6.94s25.5-4.11,25.5-6.94c0-1.43-2.77-3.58-8.97-5.15-.8-.2-1.29-1.02-1.09-1.82.2-.8,1.02-1.29,1.82-1.09,7.35,1.86,11.23,4.65,11.23,8.05,0,6.53-14.34,9.94-28.5,9.94Z"/>
  <g>
    <path class="cls-1" d="M27.16,52.94s-.09,0-.14,0c-4.92-.46-9.24-1.61-12.16-3.23-1.39-.77-2.09-2.32-1.74-3.85.17-.75.34-1.5.53-2.24.21-.86.42-1.71.65-2.56,3.56-13.43,9.09-25.86,12.48-30.74,2.24-3.22,5.3-4.92,8.84-4.92,3.91,0,9.99,2.59,13.55,7.39.46.62.38,1.49-.2,2.01-.29.26-2.67,2.24-8.39,1.92,3.88,6.71,7.09,15.56,9.78,26.91.18.73.35,1.48.52,2.23.34,1.5-.37,3.09-1.74,3.85-2.92,1.62-7.24,2.77-12.17,3.23-.82.07-1.56-.53-1.63-1.35-.08-.82.53-1.56,1.35-1.63,4.46-.42,8.47-1.46,10.99-2.87.21-.12.33-.35.28-.56-.17-.75-.34-1.48-.51-2.2-2.98-12.59-6.59-21.95-11.02-28.63-.33-.5-.33-1.15,0-1.65s.92-.76,1.51-.66c3.85.67,6.3.26,7.66-.19-3.17-3.27-7.64-4.81-9.98-4.81-2.55,0-4.7,1.22-6.38,3.64-2.78,4-8.35,15.88-12.04,29.79-.22.83-.43,1.66-.63,2.51-.18.73-.35,1.46-.51,2.2-.05.22.06.44.28.56,2.52,1.4,6.53,2.45,10.98,2.87.82.08,1.43.81,1.35,1.63-.07.78-.73,1.36-1.49,1.36Z"/>
    <path class="cls-1" d="M41.7,45.18c-.69,0-1.31-.48-1.47-1.19-.17-.81.34-1.61,1.15-1.78,2.46-.53,4.6-1.26,6.17-2.11.73-.4,1.64-.13,2.04.6.4.73.13,1.64-.6,2.04-1.82.99-4.23,1.83-6.98,2.41-.11.02-.21.03-.31.03Z"/>
    <path class="cls-1" d="M27.16,45.91s-.09,0-.14,0c-4.83-.45-9.09-1.57-12-3.16-.73-.4-1-1.31-.6-2.03.4-.73,1.31-1,2.03-.6,2.56,1.39,6.41,2.39,10.84,2.8.82.08,1.43.81,1.35,1.63-.07.78-.73,1.36-1.49,1.36Z"/>
  </g>
  <g>
    <rect class="cls-1" x="27.16" y="43.33" width="9.67" height="9.67" rx="1" ry="1"/>
    <path class="cls-1" d="M35.83,54.5h-7.67c-1.38,0-2.5-1.12-2.5-2.5v-7.67c0-1.38,1.12-2.5,2.5-2.5h7.67c1.38,0,2.5,1.12,2.5,2.5v7.67c0,1.38-1.12,2.5-2.5,2.5ZM28.66,51.5h6.67v-6.67h-6.67v6.67Z"/>
  </g>
  <path class="cls-1" d="M22.29,45.18c-.13,0-.26-.02-.39-.05-.8-.21-1.27-1.04-1.06-1.84.17-.63,4.19-15.56,7.69-22.9.36-.75,1.25-1.06,2-.71.75.36,1.06,1.25.71,2-3.38,7.09-7.46,22.23-7.5,22.39-.18.67-.79,1.11-1.45,1.11Z"/>
  <path class="cls-1" d="M11.72,19.94c-.68,0-1.27-.46-1.45-1.11l-.5-1.87c-.43-1.61-1.69-2.87-3.29-3.3l-1.87-.5c-.66-.17-1.11-.77-1.11-1.45s.46-1.27,1.11-1.45l1.87-.5c1.6-.43,2.87-1.69,3.29-3.3l.5-1.87c.17-.66.77-1.11,1.45-1.11s1.27.46,1.45,1.11l.5,1.87c.43,1.6,1.69,2.87,3.29,3.3l1.87.5c.66.17,1.11.77,1.11,1.45s-.46,1.27-1.11,1.45l-1.87.5c-1.6.43-2.87,1.69-3.29,3.3l-.5,1.87c-.17.66-.77,1.11-1.45,1.11ZM9.41,11.72c.93.6,1.72,1.39,2.31,2.31.6-.93,1.38-1.72,2.31-2.31-.93-.6-1.72-1.39-2.31-2.31-.6.93-1.39,1.72-2.31,2.31Z"/>
  <g>
    <path class="cls-1" d="M55.44,32.45c-.83,0-1.5-.67-1.5-1.5v-7.12c0-.83.67-1.5,1.5-1.5s1.5.67,1.5,1.5v7.12c0,.83-.67,1.5-1.5,1.5Z"/>
    <path class="cls-1" d="M59,28.89h-7.12c-.83,0-1.5-.67-1.5-1.5s.67-1.5,1.5-1.5h7.12c.83,0,1.5.67,1.5,1.5s-.67,1.5-1.5,1.5Z"/>
  </g>
</svg>