<?xml version="1.0" encoding="UTF-8"?>
<svg id="SOLID" xmlns="http://www.w3.org/2000/svg" viewBox="0 0 64 64">
  <defs>
    <style>
      .cls-1 {
        fill: #293a4c;
      }
    </style>
  </defs>
  <g>
    <g>
      <path class="cls-1" d="M45.85,60.5H5c-.83,0-1.5-.67-1.5-1.5v-2.24c0-6.84,5.34-12.6,12.15-13.13l1.24-.1c1.24-.09,2.21-1.14,2.21-2.39v-.65c0-.83.67-1.5,1.5-1.5s1.5.67,1.5,1.5v.65c0,2.8-2.19,5.16-4.97,5.38l-1.24.1c-5.26.4-9.38,4.86-9.38,10.14v.74h37.85v-.74c0-5.28-4.12-9.73-9.38-10.14l-1.25-.1c-2.79-.21-4.97-2.58-4.97-5.38v-.65c0-.83.67-1.5,1.5-1.5s1.5.67,1.5,1.5v.65c0,1.24.97,2.29,2.2,2.39l1.25.1c6.81.52,12.15,6.29,12.15,13.13v2.24c0,.83-.67,1.5-1.5,1.5Z"/>
      <path class="cls-1" d="M25.43,43.12c-3.31,0-6.43-1.29-8.78-3.63-2.34-2.36-3.63-5.47-3.63-8.78v-4.17c0-.83.67-1.5,1.5-1.5s1.5.67,1.5,1.5v4.17c0,2.51.98,4.88,2.75,6.66,1.78,1.77,4.15,2.75,6.66,2.75,5.18,0,9.4-4.22,9.4-9.41v-4.17c0-.83.67-1.5,1.5-1.5s1.5.67,1.5,1.5v4.17c0,6.84-5.56,12.41-12.4,12.41Z"/>
    </g>
    <path class="cls-1" d="M25.43,38.07c-1.06,0-2.13-.28-3.16-.84-.73-.4-1-1.31-.6-2.03.4-.73,1.31-1,2.03-.6,1.18.64,2.28.64,3.46,0,.73-.4,1.64-.13,2.03.6.4.73.13,1.64-.6,2.03-1.03.56-2.1.84-3.16.84Z"/>
  </g>
  <path class="cls-1" d="M25.43,29.55c-8.54,0-18.47-2.95-18.47-6.75,0-2.25,2.65-3.39,9.15-3.92.86-.08,1.63.63,1.63,1.5,0,.8-.63,1.46-1.42,1.5-3.84.31-5.44.79-6.08,1.08,1.45,1.29,7.25,3.59,15.2,3.59s13.74-2.3,15.19-3.59c-.65-.29-2.27-.78-6.12-1.09-.83-.06-1.44-.79-1.38-1.61s.79-1.45,1.61-1.38c6.5.51,9.15,1.65,9.15,3.92,0,3.8-9.92,6.75-18.46,6.75ZM41.02,23.19h.01-.01Z"/>
  <path class="cls-1" d="M25.43,25.36c-3.17,0-6.33-.32-9.48-.95-.81-.17-1.49-.72-1.81-1.5-.32-.78-.23-1.66.24-2.35L24.14,4.23c.27-.45.76-.73,1.29-.73s1.02.28,1.29.73l9.8,16.39c.43.63.52,1.51.2,2.29-.32.77-.99,1.33-1.8,1.5-3.14.64-6.31.95-9.48.95ZM17.25,21.6c5.43,1.01,10.92,1.01,16.35,0l-8.18-13.67-8.18,13.68ZM33.95,22.18s.02.03.03.04l-.03-.04ZM16.93,22.14v.02s0-.01,0-.02Z"/>
  <path class="cls-1" d="M25.43,20.68c-2.78,0-5.57-.22-8.33-.66-.82-.13-1.38-.9-1.25-1.72.13-.82.9-1.37,1.72-1.25,5.21.83,10.5.83,15.72,0,.82-.13,1.59.43,1.72,1.25.13.82-.43,1.59-1.25,1.72-2.76.44-5.55.66-8.33.66Z"/>
  <g>
    <path class="cls-1" d="M15.23,60.5c-.83,0-1.5-.67-1.5-1.5v-3.63c0-.83.67-1.5,1.5-1.5s1.5.67,1.5,1.5v3.63c0,.83-.67,1.5-1.5,1.5Z"/>
    <path class="cls-1" d="M35.62,60.5c-.83,0-1.5-.67-1.5-1.5v-3.63c0-.83.67-1.5,1.5-1.5s1.5.67,1.5,1.5v3.63c0,.83-.67,1.5-1.5,1.5Z"/>
  </g>
  <g>
    <path class="cls-1" d="M8.75,49.69c-.83,0-1.5-.67-1.5-1.5,0-.04,0-.09,0-.13l1.89-23.19c.07-.83.78-1.44,1.62-1.37.83.07,1.44.79,1.37,1.62l-1.89,23.18c-.06.78-.7,1.4-1.5,1.4Z"/>
    <path class="cls-1" d="M42.1,49.69c-.8,0-1.46-.63-1.5-1.42l-1.89-23.16c-.07-.83.55-1.55,1.37-1.62.82-.07,1.55.55,1.62,1.37l1.89,23.2s0,.08,0,.12c0,.83-.67,1.5-1.5,1.5Z"/>
  </g>
  <path class="cls-1" d="M25.43,60.5h0c-.52,0-1.01-.28-1.28-.73l-8.41-13.97c-.43-.71-.2-1.63.51-2.06.71-.43,1.63-.2,2.06.51l7.13,11.84,7.13-11.75c.43-.71,1.35-.93,2.06-.5.71.43.93,1.35.5,2.06l-8.41,13.87c-.27.45-.76.72-1.28.72Z"/>
  <path class="cls-1" d="M25.42,49.98c-3.76,0-7.23-1.43-9.51-3.92-.56-.61-.52-1.56.09-2.12.61-.56,1.56-.52,2.12.09,1.69,1.84,4.42,2.94,7.3,2.94s5.62-1.1,7.31-2.94c.56-.61,1.51-.65,2.12-.09.61.56.65,1.51.09,2.12-2.28,2.49-5.75,3.92-9.52,3.92Z"/>
  <g>
    <g>
      <path class="cls-1" d="M56.41,40.71h-8.63c-.49,0-.94-.24-1.22-.63s-.35-.91-.19-1.36l2.17-6.16c.27-.78,1.13-1.19,1.91-.92.78.27,1.19,1.13.92,1.91l-1.46,4.16h4.41c-.13-.72.27-1.44.98-1.69.78-.28,1.64.14,1.91.92l.62,1.78c.16.46.09.97-.19,1.36s-.74.63-1.22.63Z"/>
      <path class="cls-1" d="M52.11,60.5c-2,0-3.63-1.63-3.63-3.63v-17.66c0-.83.67-1.5,1.5-1.5s1.5.67,1.5,1.5v17.66c0,.35.28.63.63.63s.63-.28.63-.63v-17.66c0-.83.67-1.5,1.5-1.5s1.5.67,1.5,1.5v17.66c0,2-1.63,3.63-3.63,3.63Z"/>
    </g>
    <g>
      <path class="cls-1" d="M59,16.93l-2.75,14.49c-.18.94-1,1.63-1.96,1.63h-4.35c-.96,0-1.79-.69-1.97-1.63l-2.75-14.49h5.39v5.07c0,.83.67,1.5,1.5,1.5s1.5-.67,1.5-1.5v-5.07h5.39Z"/>
      <path class="cls-1" d="M60.16,15.98c-.29-.35-.71-.55-1.16-.55h-5.39v3h3.58l-2.41,12.71c-.05.23-.25.41-.49.41h-4.35c-.24,0-.45-.18-.5-.41l-2.41-12.71h3.58v-3h-5.39c-.44,0-.87.2-1.15.55-.29.34-.4.8-.32,1.23l2.75,14.49c.31,1.65,1.76,2.85,3.44,2.85h4.35c1.68,0,3.12-1.2,3.43-2.85l2.75-14.49c.09-.43-.03-.89-.31-1.23Z"/>
    </g>
  </g>
</svg>